<?xml version="1.0" encoding="UTF-8"?>
<svg version="1.1" xmlns="http://www.w3.org/2000/svg" width="4549" height="1304">
<path d="M0 0 C1.46533173 -0.00855011 1.46533173 -0.00855011 2.96026611 -0.01727295 C5.02086324 -0.02666334 7.08147497 -0.033233 9.14208984 -0.03710938 C12.2161058 -0.04672018 15.28942425 -0.07776214 18.36328125 -0.109375 C36.23148305 -0.20581827 53.70695895 1.57163478 71.078125 5.890625 C72.62681274 6.27081787 72.62681274 6.27081787 74.20678711 6.65869141 C90.43216682 10.80679477 105.85374341 17.13794288 120.515625 25.203125 C121.13598633 25.54424316 121.75634766 25.88536133 122.39550781 26.23681641 C135.77287187 33.70462728 148.15781787 42.76109045 159.3671875 53.20703125 C161.32603372 55.02697746 163.33858375 56.74029873 165.390625 58.453125 C201.00645444 89.70637292 222.57775498 137.39877762 226.515625 184.203125 C226.6736317 187.53395832 226.72499811 190.86108001 226.75390625 194.1953125 C226.7637001 195.13081436 226.77349396 196.06631622 226.78358459 197.03016663 C226.95296405 217.40787428 226.90767247 237.20500541 222.515625 257.203125 C222.20214111 258.67797363 222.20214111 258.67797363 221.88232422 260.18261719 C215.94860627 287.32215413 204.3631245 312.1591565 187.515625 334.203125 C186.8453125 335.09773438 186.175 335.99234375 185.484375 336.9140625 C170.75847197 355.774546 152.2837015 371.40422995 131.515625 383.203125 C130.39414063 383.85667969 129.27265625 384.51023437 128.1171875 385.18359375 C99.64545344 401.36258325 65.34294797 409.41729346 32.74389648 409.31665039 C31.49412521 409.31679642 30.24435394 409.31694244 28.95671082 409.3170929 C25.55650148 409.31651879 22.15635411 409.31153031 18.75615573 409.30451894 C15.19275012 409.29823477 11.62934353 409.29767761 8.06593323 409.29649353 C1.33010812 409.29339507 -5.40570061 409.28520184 -12.14151853 409.27514404 C-21.25211032 409.26183782 -30.36270664 409.25647099 -39.4733057 409.25064182 C-53.81034105 409.24126084 -68.14734185 409.22133204 -82.484375 409.203125 C-82.484375 385.113125 -82.484375 361.023125 -82.484375 336.203125 C-76.06355469 336.14253906 -69.64273438 336.08195312 -63.02734375 336.01953125 C-58.92121846 335.97896127 -54.81509834 335.93814984 -50.70898438 335.89648438 C-44.21413125 335.83060245 -37.71927825 335.76553842 -31.22436523 335.70581055 C-25.97879933 335.65751527 -20.73328719 335.6051641 -15.48778725 335.55018425 C-13.50229573 335.53005113 -11.51678967 335.51129669 -9.53127098 335.49405098 C0.26041249 335.4081216 10.03822003 335.2511148 19.8190918 334.76147461 C20.5643427 334.72553727 21.3095936 334.68959993 22.07742786 334.65257359 C53.27181362 332.92600014 80.74725514 321.6366658 103.515625 300.203125 C104.53076172 299.30207031 104.53076172 299.30207031 105.56640625 298.3828125 C127.89098611 277.71356221 136.65629148 244.66623345 137.80078125 215.2734375 C138.67222758 176.69326333 127.63335405 142.43781913 101.16943359 113.91601562 C86.78018679 99.01271542 68.47972145 89.33279239 48.828125 83.390625 C48.18834717 83.1956543 47.54856934 83.00068359 46.8894043 82.79980469 C35.08593672 79.44471452 23.14651898 78.79452457 10.953125 78.828125 C10.20783539 78.82866882 9.46254578 78.82921265 8.69467163 78.82977295 C-9.21878715 78.88971867 -25.1774669 81.54886201 -41.484375 89.203125 C-42.58007812 89.71617187 -43.67578125 90.22921875 -44.8046875 90.7578125 C-73.56548307 105.24216497 -92.10140657 132.65032249 -102.57324219 162.42382812 C-104.19199132 167.36162021 -105.54235562 172.34908739 -106.796875 177.390625 C-107.02721436 178.29546631 -107.25755371 179.20030762 -107.49487305 180.13256836 C-113.19727404 204.67695781 -112.93579158 229.59852545 -112.91711485 254.6273371 C-112.91648365 259.91054316 -112.93317894 265.19370051 -112.94763184 270.47688293 C-112.97028687 279.60159748 -112.98228014 288.72627419 -112.98676109 297.85101509 C-112.99325541 311.04339385 -113.01624994 324.23570459 -113.04310439 337.42805576 C-113.08624708 358.83850216 -113.11628507 380.24894569 -113.13793945 401.65942383 C-113.15898683 422.4416648 -113.18629455 443.22388221 -113.22192383 464.00610352 C-113.22412265 465.28991752 -113.22632148 466.57373152 -113.22858693 467.89644898 C-113.23965752 474.33780208 -113.25085016 480.77915496 -113.26210344 487.22050774 C-113.35511108 540.54803256 -113.42435093 593.87555086 -113.484375 647.203125 C-141.864375 647.203125 -170.244375 647.203125 -199.484375 647.203125 C-199.52852724 593.24841331 -199.56543194 539.29371876 -199.58650566 485.33899415 C-199.58900685 478.95841795 -199.59159552 472.57784178 -199.59423828 466.19726562 C-199.5947629 464.92709319 -199.59528752 463.65692075 -199.59582804 462.34825824 C-199.60451307 441.82489567 -199.6202725 421.30154438 -199.63868059 400.77818848 C-199.65743269 379.69429227 -199.66850292 358.61040193 -199.67255199 337.52649772 C-199.67528606 324.53338453 -199.68389806 311.54030325 -199.70020793 298.54719989 C-199.71084047 289.61801643 -199.71396155 280.68884928 -199.71137775 271.75965996 C-199.71010615 266.62034088 -199.71195204 261.48107729 -199.72278595 256.34176826 C-199.77471799 230.41053897 -199.75207691 204.58274774 -195.234375 178.953125 C-195.01894043 177.70354004 -194.80350586 176.45395508 -194.58154297 175.16650391 C-192.57512949 163.96127982 -189.89836315 153.05876954 -186.484375 142.203125 C-186.22430664 141.36668457 -185.96423828 140.53024414 -185.69628906 139.66845703 C-169.66943249 88.96905581 -135.24533656 46.70157071 -88.28125 21.62109375 C-61.4197969 7.7778756 -30.19681131 0.14142293 0 0 Z " fill="#FA5D6D" transform="translate(3527.484375,38.796875)"/>
<path d="M0 0 C0.95706345 -0.00570007 1.91412689 -0.01140015 2.90019226 -0.01727295 C4.91790688 -0.02666067 6.93563641 -0.03323192 8.95336914 -0.03710938 C11.9659479 -0.04672885 14.97781754 -0.07777709 17.99023438 -0.109375 C34.62195824 -0.20032115 50.95693711 1.39407463 67.13671875 5.390625 C67.98830566 5.60001709 68.83989258 5.80940918 69.71728516 6.02514648 C92.87622416 11.9661017 115.42507088 21.94361735 134.69921875 36.203125 C135.22128906 36.58678223 135.74335938 36.97043945 136.28125 37.36572266 C142.90646608 42.25899554 149.24244168 47.40439858 155.30078125 52.9921875 C156.92239798 54.48703289 158.56380769 55.96064411 160.22265625 57.4140625 C181.01582017 75.64806778 196.55371963 98.89459111 210.63696289 122.46411133 C211.61737139 124.0691331 212.65595527 125.63822978 213.69921875 127.203125 C213.69921875 128.193125 213.69921875 129.183125 213.69921875 130.203125 C212.27587891 131.46728516 212.27587891 131.46728516 210.23828125 132.7421875 C209.4704834 133.23106445 208.70268555 133.71994141 207.91162109 134.22363281 C207.05777832 134.75311523 206.20393555 135.28259766 205.32421875 135.828125 C203.47475307 137.00180508 201.62582061 138.17632571 199.77734375 139.3515625 C198.78798828 139.97643555 197.79863281 140.60130859 196.77929688 141.24511719 C191.5097796 144.59495299 186.2949603 148.02797233 181.07421875 151.453125 C178.85304458 152.90652628 176.63169605 154.35965798 174.41015625 155.8125 C173.28872225 156.54620145 172.16730298 157.27992541 171.04589844 158.01367188 C165.59774016 161.577947 160.1484317 165.14046262 154.69921875 168.703125 C152.53254635 170.11978289 150.36587968 171.53644957 148.19921875 172.953125 C109.19921873 198.45312502 109.19921873 198.45312502 105.94995117 200.57763672 C103.78083163 201.99591345 101.61172358 203.41420776 99.44262695 204.83251953 C94.06358276 208.3496955 88.68434661 211.86657714 83.3046875 215.3828125 C71.93206474 222.81662445 60.56307794 230.25592658 49.19921875 237.703125 C36.771909 245.84724577 24.33800998 253.98123424 11.90087891 262.11035156 C8.67072957 264.22174703 5.44079194 266.33346594 2.2109375 268.4453125 C1.13610107 269.14809326 0.06126465 269.85087402 -1.04614258 270.57495117 C-3.20879773 271.98908851 -5.37139576 273.4033132 -7.53393555 274.81762695 C-12.48162138 278.05324101 -17.42980243 281.28808324 -22.38076782 284.51867676 C-24.07487803 285.62423812 -25.76866235 286.73029735 -27.46240234 287.83642578 C-29.66229717 289.27245483 -31.86312204 290.70706027 -34.06494141 292.14013672 C-39.01145208 295.36618796 -43.9329085 298.61749226 -48.79296875 301.97265625 C-49.62505859 302.54330811 -50.45714844 303.11395996 -51.31445312 303.7019043 C-52.8415812 304.75362061 -54.36168152 305.81564767 -55.87304688 306.88989258 C-60.73584749 310.23100449 -60.73584749 310.23100449 -63.32910156 310.10302734 C-66.06442539 308.85458707 -66.78640813 307.33874478 -68.26171875 304.734375 C-69.08289185 303.30605347 -69.08289185 303.30605347 -69.9206543 301.84887695 C-70.78944214 300.29172974 -70.78944214 300.29172974 -71.67578125 298.703125 C-72.58420776 297.1102063 -72.58420776 297.1102063 -73.51098633 295.48510742 C-75.12417587 292.64836254 -76.72544001 289.80538523 -78.31878662 286.9574585 C-79.30089209 285.20292699 -80.28595257 283.45008806 -81.27197266 281.69775391 C-84.83119719 275.36974966 -88.37551125 269.03377985 -91.8972168 262.68481445 C-93.28534551 260.13657093 -93.28534551 260.13657093 -95.10473633 257.63354492 C-95.49943115 256.83150635 -95.89412598 256.02946777 -96.30078125 255.203125 C-95.11579224 251.7721018 -93.39608091 250.27978864 -90.3996582 248.34082031 C-89.59220657 247.81151917 -88.78475494 247.28221802 -87.95283508 246.73687744 C-87.07379013 246.17402039 -86.19474518 245.61116333 -85.2890625 245.03125 C-83.92269905 244.13983307 -83.92269905 244.13983307 -82.5287323 243.23040771 C-80.57676564 241.95804194 -78.62210355 240.68980358 -76.66503906 239.42529297 C-71.55864086 236.12533419 -66.47173028 232.795576 -61.3828125 229.46875 C-60.39084869 228.82135864 -59.39888489 228.17396729 -58.37686157 227.50695801 C-51.76610835 223.18562835 -45.23816681 218.77956693 -38.80078125 214.203125 C-28.09917812 206.62776217 -17.13465055 199.46113329 -6.17578125 192.265625 C7.69192514 183.15834367 21.52688761 174.00981947 35.26171875 164.703125 C35.99418823 164.20683594 36.72665771 163.71054687 37.48132324 163.19921875 C40.48281389 161.16495744 43.48386587 159.13005149 46.48428345 157.09420776 C55.55788127 150.93864408 64.64825939 144.80796594 73.73898315 138.67773438 C76.48462793 136.82604589 79.2297809 134.9736303 81.97485352 133.12109375 C82.83565018 132.54052216 83.69644684 131.95995056 84.58332825 131.36178589 C86.25863242 130.23162061 87.9334407 129.10071983 89.60771179 127.96902466 C93.48274745 125.3533652 97.36816128 122.75752702 101.28613281 120.20654297 C101.99327423 119.74384506 102.70041565 119.28114716 103.4289856 118.8044281 C104.7457809 117.94479092 106.06629511 117.09081387 107.39108276 116.24354553 C108.86203971 115.28144346 110.28672056 114.24916687 111.69921875 113.203125 C111.69921875 109.7174922 108.5443873 107.61857469 106.19921875 105.265625 C90.53158019 89.66959753 71.04211882 79.60559566 49.69921875 74.203125 C47.84876953 73.72359375 47.84876953 73.72359375 45.9609375 73.234375 C25.00967255 68.5324151 -1.54194386 68.73587795 -22.30078125 74.203125 C-23.09258789 74.40180176 -23.88439453 74.60047852 -24.70019531 74.80517578 C-36.66674663 77.86910865 -47.56047531 82.11109206 -58.30078125 88.203125 C-58.88972168 88.53602539 -59.47866211 88.86892578 -60.08544922 89.21191406 C-67.70053161 93.577411 -74.65809692 98.47560925 -81.30078125 104.203125 C-82.73550781 105.41935547 -82.73550781 105.41935547 -84.19921875 106.66015625 C-91.95845689 113.39335869 -98.32406061 120.86276839 -104.30078125 129.203125 C-104.69894043 129.75838867 -105.09709961 130.31365234 -105.50732422 130.88574219 C-116.70467425 146.7826928 -123.9617537 164.2994283 -128.30078125 183.203125 C-128.56761719 184.35458008 -128.56761719 184.35458008 -128.83984375 185.52929688 C-137.08812405 223.26845238 -130.82308108 264.56904036 -112.30078125 298.203125 C-111.45386719 299.78480469 -111.45386719 299.78480469 -110.58984375 301.3984375 C-103.54921354 314.05835004 -94.22961412 324.75968798 -84.30078125 335.203125 C-83.68203125 335.88632812 -83.06328125 336.56953125 -82.42578125 337.2734375 C-59.81453958 361.39882482 -24.37103701 378.14670058 8.70849609 379.37158203 C34.40695989 380.137232 34.40695989 380.137232 59.69921875 376.203125 C60.50665527 375.99913086 61.3140918 375.79513672 62.14599609 375.58496094 C101.69134733 365.24128826 134.96920105 340.36578842 156.07617188 305.19238281 C167.79326825 285.01664289 176.77145007 263.77282813 182.69921875 241.203125 C186.94734176 241.80755264 190.05842652 243.29519366 193.79296875 245.37890625 C194.37347488 245.70054245 194.95398102 246.02217865 195.55207825 246.3535614 C197.43822757 247.40097274 199.31874731 248.45805924 201.19921875 249.515625 C202.49737728 250.23940366 203.79580054 250.96270769 205.09448242 251.68554688 C216.01097978 257.77263895 226.87609014 263.95160237 237.69921875 270.203125 C235.79730971 278.39931754 233.45381857 286.29898139 230.57421875 294.203125 C229.98326416 295.82879395 229.98326416 295.82879395 229.38037109 297.48730469 C217.70558212 329.09975514 201.79476997 358.98461867 178.8515625 383.86328125 C176.13532759 386.81613917 173.52352025 389.8550178 170.9140625 392.90234375 C158.84374128 405.44100194 143.92998291 415.88745497 128.69921875 424.203125 C127.77471924 424.71069336 127.77471924 424.71069336 126.83154297 425.22851562 C96.82063769 441.48086195 62.12752927 450.25016225 27.99609375 450.40625 C26.99700989 450.41195007 25.99792603 450.41765015 24.96856689 450.42352295 C22.86089109 450.43291519 20.75320098 450.43948375 18.64550781 450.44335938 C15.49907032 450.45297269 12.35331349 450.484014 9.20703125 450.515625 C-8.71274623 450.61009239 -26.24784656 448.89520674 -43.67578125 444.578125 C-45.21830566 444.19853638 -45.21830566 444.19853638 -46.79199219 443.8112793 C-77.09519322 436.02766983 -105.45958054 421.50392624 -129.30078125 401.203125 C-130.38503196 400.30292186 -131.46969812 399.40321897 -132.5546875 398.50390625 C-144.63806069 388.40730071 -155.60889661 377.64162676 -165.30078125 365.203125 C-166.46480469 363.78193359 -166.46480469 363.78193359 -167.65234375 362.33203125 C-198.93592574 323.35169496 -212.81614799 274.48973756 -212.61328125 225.078125 C-212.6111261 224.13124817 -212.60897095 223.18437134 -212.60675049 222.20880127 C-212.55499503 208.0245155 -212.17067733 194.14079322 -209.30078125 180.203125 C-209.09678711 179.20265137 -208.89279297 178.20217773 -208.68261719 177.17138672 C-197.97369809 126.23777225 -171.34530812 80.65414185 -130.30078125 48.203125 C-129.51316406 47.54828125 -128.72554687 46.8934375 -127.9140625 46.21875 C-92.65330593 17.07762887 -45.75060208 0.21878457 0 0 Z " fill="#FA5D6D" transform="translate(4018.30078125,244.796875)"/>
<path d="M0 0 C0.95706345 -0.00570007 1.91412689 -0.01140015 2.90019226 -0.01727295 C4.91790688 -0.02666067 6.93563641 -0.03323192 8.95336914 -0.03710938 C11.9659479 -0.04672885 14.97781754 -0.07777709 17.99023438 -0.109375 C34.62195824 -0.20032115 50.95693711 1.39407463 67.13671875 5.390625 C67.98830566 5.60001709 68.83989258 5.80940918 69.71728516 6.02514648 C92.87622416 11.9661017 115.42507088 21.94361735 134.69921875 36.203125 C135.22128906 36.58678223 135.74335938 36.97043945 136.28125 37.36572266 C142.90646608 42.25899554 149.24244168 47.40439858 155.30078125 52.9921875 C156.92239798 54.48703289 158.56380769 55.96064411 160.22265625 57.4140625 C181.01582017 75.64806778 196.55371963 98.89459111 210.63696289 122.46411133 C211.61737139 124.0691331 212.65595527 125.63822978 213.69921875 127.203125 C213.69921875 128.193125 213.69921875 129.183125 213.69921875 130.203125 C212.27587891 131.46728516 212.27587891 131.46728516 210.23828125 132.7421875 C209.4704834 133.23106445 208.70268555 133.71994141 207.91162109 134.22363281 C207.05777832 134.75311523 206.20393555 135.28259766 205.32421875 135.828125 C203.47475307 137.00180508 201.62582061 138.17632571 199.77734375 139.3515625 C198.78798828 139.97643555 197.79863281 140.60130859 196.77929688 141.24511719 C191.5097796 144.59495299 186.2949603 148.02797233 181.07421875 151.453125 C178.85304458 152.90652628 176.63169605 154.35965798 174.41015625 155.8125 C173.28872225 156.54620145 172.16730298 157.27992541 171.04589844 158.01367188 C165.59774016 161.577947 160.1484317 165.14046262 154.69921875 168.703125 C152.53254635 170.11978289 150.36587968 171.53644957 148.19921875 172.953125 C109.19921873 198.45312502 109.19921873 198.45312502 105.94995117 200.57763672 C103.78083163 201.99591345 101.61172358 203.41420776 99.44262695 204.83251953 C94.06358276 208.3496955 88.68434661 211.86657714 83.3046875 215.3828125 C71.93206474 222.81662445 60.56307794 230.25592658 49.19921875 237.703125 C36.771909 245.84724577 24.33800998 253.98123424 11.90087891 262.11035156 C8.67072957 264.22174703 5.44079194 266.33346594 2.2109375 268.4453125 C1.13610107 269.14809326 0.06126465 269.85087402 -1.04614258 270.57495117 C-3.20879773 271.98908851 -5.37139576 273.4033132 -7.53393555 274.81762695 C-12.48162138 278.05324101 -17.42980243 281.28808324 -22.38076782 284.51867676 C-24.07487803 285.62423812 -25.76866235 286.73029735 -27.46240234 287.83642578 C-29.66229717 289.27245483 -31.86312204 290.70706027 -34.06494141 292.14013672 C-39.01145208 295.36618796 -43.9329085 298.61749226 -48.79296875 301.97265625 C-49.62505859 302.54330811 -50.45714844 303.11395996 -51.31445312 303.7019043 C-52.8415812 304.75362061 -54.36168152 305.81564767 -55.87304688 306.88989258 C-60.73584749 310.23100449 -60.73584749 310.23100449 -63.32910156 310.10302734 C-66.06442539 308.85458707 -66.78640813 307.33874478 -68.26171875 304.734375 C-69.08289185 303.30605347 -69.08289185 303.30605347 -69.9206543 301.84887695 C-70.78944214 300.29172974 -70.78944214 300.29172974 -71.67578125 298.703125 C-72.58420776 297.1102063 -72.58420776 297.1102063 -73.51098633 295.48510742 C-75.12417587 292.64836254 -76.72544001 289.80538523 -78.31878662 286.9574585 C-79.30089209 285.20292699 -80.28595257 283.45008806 -81.27197266 281.69775391 C-84.83119719 275.36974966 -88.37551125 269.03377985 -91.8972168 262.68481445 C-93.28534551 260.13657093 -93.28534551 260.13657093 -95.10473633 257.63354492 C-95.49943115 256.83150635 -95.89412598 256.02946777 -96.30078125 255.203125 C-95.11579224 251.7721018 -93.39608091 250.27978864 -90.3996582 248.34082031 C-89.59220657 247.81151917 -88.78475494 247.28221802 -87.95283508 246.73687744 C-87.07379013 246.17402039 -86.19474518 245.61116333 -85.2890625 245.03125 C-83.92269905 244.13983307 -83.92269905 244.13983307 -82.5287323 243.23040771 C-80.57676564 241.95804194 -78.62210355 240.68980358 -76.66503906 239.42529297 C-71.55864086 236.12533419 -66.47173028 232.795576 -61.3828125 229.46875 C-60.39084869 228.82135864 -59.39888489 228.17396729 -58.37686157 227.50695801 C-51.76610835 223.18562835 -45.23816681 218.77956693 -38.80078125 214.203125 C-28.09917812 206.62776217 -17.13465055 199.46113329 -6.17578125 192.265625 C7.69192514 183.15834367 21.52688761 174.00981947 35.26171875 164.703125 C35.99418823 164.20683594 36.72665771 163.71054687 37.48132324 163.19921875 C40.48281389 161.16495744 43.48386587 159.13005149 46.48428345 157.09420776 C55.55788127 150.93864408 64.64825939 144.80796594 73.73898315 138.67773438 C76.48462793 136.82604589 79.2297809 134.9736303 81.97485352 133.12109375 C82.83565018 132.54052216 83.69644684 131.95995056 84.58332825 131.36178589 C86.25863242 130.23162061 87.9334407 129.10071983 89.60771179 127.96902466 C93.48274745 125.3533652 97.36816128 122.75752702 101.28613281 120.20654297 C101.99327423 119.74384506 102.70041565 119.28114716 103.4289856 118.8044281 C104.7457809 117.94479092 106.06629511 117.09081387 107.39108276 116.24354553 C108.86203971 115.28144346 110.28672056 114.24916687 111.69921875 113.203125 C111.69921875 109.7174922 108.5443873 107.61857469 106.19921875 105.265625 C90.53158019 89.66959753 71.04211882 79.60559566 49.69921875 74.203125 C47.84876953 73.72359375 47.84876953 73.72359375 45.9609375 73.234375 C25.00967255 68.5324151 -1.54194386 68.73587795 -22.30078125 74.203125 C-23.09258789 74.40180176 -23.88439453 74.60047852 -24.70019531 74.80517578 C-36.66674663 77.86910865 -47.56047531 82.11109206 -58.30078125 88.203125 C-58.88972168 88.53602539 -59.47866211 88.86892578 -60.08544922 89.21191406 C-67.70053161 93.577411 -74.65809692 98.47560925 -81.30078125 104.203125 C-82.73550781 105.41935547 -82.73550781 105.41935547 -84.19921875 106.66015625 C-91.95845689 113.39335869 -98.32406061 120.86276839 -104.30078125 129.203125 C-104.69894043 129.75838867 -105.09709961 130.31365234 -105.50732422 130.88574219 C-116.70467425 146.7826928 -123.9617537 164.2994283 -128.30078125 183.203125 C-128.56761719 184.35458008 -128.56761719 184.35458008 -128.83984375 185.52929688 C-137.08812405 223.26845238 -130.82308108 264.56904036 -112.30078125 298.203125 C-111.45386719 299.78480469 -111.45386719 299.78480469 -110.58984375 301.3984375 C-103.54921354 314.05835004 -94.22961412 324.75968798 -84.30078125 335.203125 C-83.68203125 335.88632812 -83.06328125 336.56953125 -82.42578125 337.2734375 C-59.81453958 361.39882482 -24.37103701 378.14670058 8.70849609 379.37158203 C34.40695989 380.137232 34.40695989 380.137232 59.69921875 376.203125 C60.50665527 375.99913086 61.3140918 375.79513672 62.14599609 375.58496094 C101.69134733 365.24128826 134.96920105 340.36578842 156.07617188 305.19238281 C167.79326825 285.01664289 176.77145007 263.77282813 182.69921875 241.203125 C186.94734176 241.80755264 190.05842652 243.29519366 193.79296875 245.37890625 C194.37347488 245.70054245 194.95398102 246.02217865 195.55207825 246.3535614 C197.43822757 247.40097274 199.31874731 248.45805924 201.19921875 249.515625 C202.49737728 250.23940366 203.79580054 250.96270769 205.09448242 251.68554688 C216.01097978 257.77263895 226.87609014 263.95160237 237.69921875 270.203125 C235.79730971 278.39931754 233.45381857 286.29898139 230.57421875 294.203125 C229.98326416 295.82879395 229.98326416 295.82879395 229.38037109 297.48730469 C217.70558212 329.09975514 201.79476997 358.98461867 178.8515625 383.86328125 C176.13532759 386.81613917 173.52352025 389.8550178 170.9140625 392.90234375 C158.84374128 405.44100194 143.92998291 415.88745497 128.69921875 424.203125 C127.77471924 424.71069336 127.77471924 424.71069336 126.83154297 425.22851562 C96.82063769 441.48086195 62.12752927 450.25016225 27.99609375 450.40625 C26.99700989 450.41195007 25.99792603 450.41765015 24.96856689 450.42352295 C22.86089109 450.43291519 20.75320098 450.43948375 18.64550781 450.44335938 C15.49907032 450.45297269 12.35331349 450.484014 9.20703125 450.515625 C-8.71274623 450.61009239 -26.24784656 448.89520674 -43.67578125 444.578125 C-45.21830566 444.19853638 -45.21830566 444.19853638 -46.79199219 443.8112793 C-77.09519322 436.02766983 -105.45958054 421.50392624 -129.30078125 401.203125 C-130.38503196 400.30292186 -131.46969812 399.40321897 -132.5546875 398.50390625 C-144.63806069 388.40730071 -155.60889661 377.64162676 -165.30078125 365.203125 C-166.46480469 363.78193359 -166.46480469 363.78193359 -167.65234375 362.33203125 C-198.93592574 323.35169496 -212.81614799 274.48973756 -212.61328125 225.078125 C-212.6111261 224.13124817 -212.60897095 223.18437134 -212.60675049 222.20880127 C-212.55499503 208.0245155 -212.17067733 194.14079322 -209.30078125 180.203125 C-209.09678711 179.20265137 -208.89279297 178.20217773 -208.68261719 177.17138672 C-197.97369809 126.23777225 -171.34530812 80.65414185 -130.30078125 48.203125 C-129.51316406 47.54828125 -128.72554687 46.8934375 -127.9140625 46.21875 C-92.65330593 17.07762887 -45.75060208 0.21878457 0 0 Z " fill="#FA5D6D" transform="translate(2744.30078125,244.796875)"/>
<path d="M0 0 C0.95706345 -0.00570007 1.91412689 -0.01140015 2.90019226 -0.01727295 C4.91790688 -0.02666067 6.93563641 -0.03323192 8.95336914 -0.03710938 C11.9659479 -0.04672885 14.97781754 -0.07777709 17.99023438 -0.109375 C34.62195824 -0.20032115 50.95693711 1.39407463 67.13671875 5.390625 C67.98830566 5.60001709 68.83989258 5.80940918 69.71728516 6.02514648 C92.87622416 11.9661017 115.42507088 21.94361735 134.69921875 36.203125 C135.22128906 36.58678223 135.74335937 36.97043945 136.28125 37.36572266 C142.90646608 42.25899554 149.24244168 47.40439858 155.30078125 52.9921875 C156.92239798 54.48703289 158.56380769 55.96064411 160.22265625 57.4140625 C181.01582017 75.64806778 196.55371963 98.89459111 210.63696289 122.46411133 C211.61737139 124.0691331 212.65595527 125.63822978 213.69921875 127.203125 C213.69921875 128.193125 213.69921875 129.183125 213.69921875 130.203125 C212.27587891 131.46728516 212.27587891 131.46728516 210.23828125 132.7421875 C209.4704834 133.23106445 208.70268555 133.71994141 207.91162109 134.22363281 C207.05777832 134.75311523 206.20393555 135.28259766 205.32421875 135.828125 C203.47475307 137.00180508 201.62582061 138.17632571 199.77734375 139.3515625 C198.78798828 139.97643555 197.79863281 140.60130859 196.77929688 141.24511719 C191.5097796 144.59495299 186.2949603 148.02797233 181.07421875 151.453125 C178.85304458 152.90652628 176.63169605 154.35965798 174.41015625 155.8125 C173.28872225 156.54620145 172.16730298 157.27992541 171.04589844 158.01367188 C165.59774016 161.577947 160.1484317 165.14046262 154.69921875 168.703125 C152.53254635 170.11978289 150.36587968 171.53644957 148.19921875 172.953125 C109.19921873 198.45312502 109.19921873 198.45312502 105.94995117 200.57763672 C103.78083163 201.99591345 101.61172358 203.41420776 99.44262695 204.83251953 C94.06358276 208.3496955 88.68434661 211.86657714 83.3046875 215.3828125 C71.93206474 222.81662445 60.56307794 230.25592658 49.19921875 237.703125 C36.771909 245.84724577 24.33800998 253.98123424 11.90087891 262.11035156 C8.67072957 264.22174703 5.44079194 266.33346594 2.2109375 268.4453125 C1.13610107 269.14809326 0.06126465 269.85087402 -1.04614258 270.57495117 C-3.20879773 271.98908851 -5.37139576 273.4033132 -7.53393555 274.81762695 C-12.48162138 278.05324101 -17.42980243 281.28808324 -22.38076782 284.51867676 C-24.07487803 285.62423812 -25.76866235 286.73029735 -27.46240234 287.83642578 C-29.66229717 289.27245483 -31.86312204 290.70706027 -34.06494141 292.14013672 C-39.01145208 295.36618796 -43.9329085 298.61749226 -48.79296875 301.97265625 C-49.62505859 302.54330811 -50.45714844 303.11395996 -51.31445312 303.7019043 C-52.8415812 304.75362061 -54.36168152 305.81564767 -55.87304688 306.88989258 C-60.73584749 310.23100449 -60.73584749 310.23100449 -63.32910156 310.10302734 C-66.06442539 308.85458707 -66.78640813 307.33874478 -68.26171875 304.734375 C-69.08289185 303.30605347 -69.08289185 303.30605347 -69.9206543 301.84887695 C-70.78944214 300.29172974 -70.78944214 300.29172974 -71.67578125 298.703125 C-72.58420776 297.1102063 -72.58420776 297.1102063 -73.51098633 295.48510742 C-75.12417587 292.64836254 -76.72544001 289.80538523 -78.31878662 286.9574585 C-79.30089209 285.20292699 -80.28595257 283.45008806 -81.27197266 281.69775391 C-84.83119719 275.36974966 -88.37551125 269.03377985 -91.8972168 262.68481445 C-93.28534551 260.13657093 -93.28534551 260.13657093 -95.10473633 257.63354492 C-95.49943115 256.83150635 -95.89412598 256.02946777 -96.30078125 255.203125 C-95.11579224 251.7721018 -93.39608091 250.27978864 -90.3996582 248.34082031 C-89.59220657 247.81151917 -88.78475494 247.28221802 -87.95283508 246.73687744 C-87.07379013 246.17402039 -86.19474518 245.61116333 -85.2890625 245.03125 C-83.92269905 244.13983307 -83.92269905 244.13983307 -82.5287323 243.23040771 C-80.57676564 241.95804194 -78.62210355 240.68980358 -76.66503906 239.42529297 C-71.55864086 236.12533419 -66.47173028 232.795576 -61.3828125 229.46875 C-60.39084869 228.82135864 -59.39888489 228.17396729 -58.37686157 227.50695801 C-51.76610835 223.18562835 -45.23816681 218.77956693 -38.80078125 214.203125 C-28.09917812 206.62776217 -17.13465055 199.46113329 -6.17578125 192.265625 C7.69192514 183.15834367 21.52688761 174.00981947 35.26171875 164.703125 C35.99418823 164.20683594 36.72665771 163.71054687 37.48132324 163.19921875 C40.48281389 161.16495744 43.48386587 159.13005149 46.48428345 157.09420776 C55.55788127 150.93864408 64.64825939 144.80796594 73.73898315 138.67773438 C76.48462793 136.82604589 79.2297809 134.9736303 81.97485352 133.12109375 C82.83565018 132.54052216 83.69644684 131.95995056 84.58332825 131.36178589 C86.25863242 130.23162061 87.9334407 129.10071983 89.60771179 127.96902466 C93.48274745 125.3533652 97.36816128 122.75752702 101.28613281 120.20654297 C101.99327423 119.74384506 102.70041565 119.28114716 103.4289856 118.8044281 C104.7457809 117.94479092 106.06629511 117.09081387 107.39108276 116.24354553 C108.86203971 115.28144346 110.28672056 114.24916687 111.69921875 113.203125 C111.69921875 109.7174922 108.5443873 107.61857469 106.19921875 105.265625 C90.53158019 89.66959753 71.04211882 79.60559566 49.69921875 74.203125 C47.84876953 73.72359375 47.84876953 73.72359375 45.9609375 73.234375 C25.00967255 68.5324151 -1.54194386 68.73587795 -22.30078125 74.203125 C-23.09258789 74.40180176 -23.88439453 74.60047852 -24.70019531 74.80517578 C-36.66674663 77.86910865 -47.56047531 82.11109206 -58.30078125 88.203125 C-58.88972168 88.53602539 -59.47866211 88.86892578 -60.08544922 89.21191406 C-67.70053161 93.577411 -74.65809692 98.47560925 -81.30078125 104.203125 C-82.73550781 105.41935547 -82.73550781 105.41935547 -84.19921875 106.66015625 C-91.95845689 113.39335869 -98.32406061 120.86276839 -104.30078125 129.203125 C-104.69894043 129.75838867 -105.09709961 130.31365234 -105.50732422 130.88574219 C-116.70467425 146.7826928 -123.9617537 164.2994283 -128.30078125 183.203125 C-128.56761719 184.35458008 -128.56761719 184.35458008 -128.83984375 185.52929688 C-137.08812405 223.26845238 -130.82308108 264.56904036 -112.30078125 298.203125 C-111.45386719 299.78480469 -111.45386719 299.78480469 -110.58984375 301.3984375 C-103.54921354 314.05835004 -94.22961412 324.75968798 -84.30078125 335.203125 C-83.68203125 335.88632812 -83.06328125 336.56953125 -82.42578125 337.2734375 C-59.81453958 361.39882482 -24.37103701 378.14670058 8.70849609 379.37158203 C34.40695989 380.137232 34.40695989 380.137232 59.69921875 376.203125 C60.50665527 375.99913086 61.3140918 375.79513672 62.14599609 375.58496094 C101.69134733 365.24128826 134.96920105 340.36578842 156.07617188 305.19238281 C167.79326825 285.01664289 176.77145007 263.77282813 182.69921875 241.203125 C186.94734176 241.80755264 190.05842652 243.29519366 193.79296875 245.37890625 C194.37347488 245.70054245 194.95398102 246.02217865 195.55207825 246.3535614 C197.43822757 247.40097274 199.31874731 248.45805924 201.19921875 249.515625 C202.49737728 250.23940366 203.79580054 250.96270769 205.09448242 251.68554688 C216.01097978 257.77263895 226.87609014 263.95160237 237.69921875 270.203125 C235.79730971 278.39931754 233.45381857 286.29898139 230.57421875 294.203125 C229.98326416 295.82879395 229.98326416 295.82879395 229.38037109 297.48730469 C217.70558212 329.09975514 201.79476997 358.98461867 178.8515625 383.86328125 C176.13532759 386.81613917 173.52352025 389.8550178 170.9140625 392.90234375 C158.84374128 405.44100194 143.92998291 415.88745497 128.69921875 424.203125 C127.77471924 424.71069336 127.77471924 424.71069336 126.83154297 425.22851562 C96.82063769 441.48086195 62.12752927 450.25016225 27.99609375 450.40625 C26.99700989 450.41195007 25.99792603 450.41765015 24.96856689 450.42352295 C22.86089109 450.43291519 20.75320098 450.43948375 18.64550781 450.44335938 C15.49907032 450.45297269 12.35331349 450.484014 9.20703125 450.515625 C-8.71274623 450.61009239 -26.24784656 448.89520674 -43.67578125 444.578125 C-45.21830566 444.19853638 -45.21830566 444.19853638 -46.79199219 443.8112793 C-77.09519322 436.02766983 -105.45958054 421.50392624 -129.30078125 401.203125 C-130.38503196 400.30292186 -131.46969812 399.40321897 -132.5546875 398.50390625 C-144.63806069 388.40730071 -155.60889661 377.64162676 -165.30078125 365.203125 C-166.46480469 363.78193359 -166.46480469 363.78193359 -167.65234375 362.33203125 C-198.93592574 323.35169496 -212.81614799 274.48973756 -212.61328125 225.078125 C-212.6111261 224.13124817 -212.60897095 223.18437134 -212.60675049 222.20880127 C-212.55499503 208.0245155 -212.17067733 194.14079322 -209.30078125 180.203125 C-209.09678711 179.20265137 -208.89279297 178.20217773 -208.68261719 177.17138672 C-197.97369809 126.23777225 -171.34530812 80.65414185 -130.30078125 48.203125 C-129.51316406 47.54828125 -128.72554687 46.8934375 -127.9140625 46.21875 C-92.65330593 17.07762887 -45.75060208 0.21878457 0 0 Z " fill="#FA5D6D" transform="translate(1129.30078125,244.796875)"/>
<path d="M0 0 C0.97980835 -0.0061734 1.9596167 -0.0123468 2.96911621 -0.01870728 C51.44982431 -0.21502036 99.17114054 13.82714612 137.25 44.4375 C138.22453125 45.20835937 139.1990625 45.97921875 140.203125 46.7734375 C155.14425652 58.84647957 169.13200418 72.74596499 180.25 88.4375 C180.71921875 89.08944336 181.1884375 89.74138672 181.671875 90.41308594 C206.3769188 125.01640057 220.67795246 166.13305673 224.25 208.4375 C224.33358481 209.41277932 224.41716963 210.38805864 224.50328732 211.39289188 C225.36125463 222.65000647 225.38448222 233.86702233 225.36352539 245.15209961 C225.36324276 247.30206806 225.36340273 249.45203661 225.3639679 251.602005 C225.36425291 257.39432903 225.35840417 263.18663204 225.35139394 268.97895122 C225.34511099 275.04875629 225.34455271 281.11856193 225.34336853 287.18836975 C225.34026972 298.66264822 225.33207599 310.13691708 225.32201904 321.61119133 C225.31081273 334.6826314 225.3053361 347.75407195 225.30032361 360.82551563 C225.28989207 387.69618363 225.27156474 414.56683847 225.25 441.4375 C199.84 441.4375 174.43 441.4375 148.25 441.4375 C148.23018066 435.6111792 148.21036133 429.7848584 148.18994141 423.78198242 C148.12278311 404.44781654 148.04524362 385.11370232 147.96247292 365.77959728 C147.91258021 354.06702639 147.8661369 342.35446168 147.828125 330.6418457 C147.79494317 320.42032131 147.75497261 310.19884855 147.70720994 299.97738153 C147.68220203 294.57685994 147.6603486 289.17637145 147.64665604 283.77580833 C147.48397763 222.10561304 143.59865309 160.49368422 97.81152344 113.97607422 C81.61880404 98.09109482 61.82894976 87.89357201 40.1875 81.6875 C39.50461914 81.48874268 38.82173828 81.28998535 38.11816406 81.08520508 C26.14609754 77.82378154 14.08334095 77.08656033 1.74682617 77.12182617 C-0.55012733 77.124983 -2.84578262 77.10142755 -5.14257812 77.07617188 C-19.07203294 77.01581242 -32.47020929 79.02243933 -45.8125 83.125 C-46.64410645 83.37918701 -47.47571289 83.63337402 -48.33251953 83.89526367 C-83.75232666 95.20644467 -113.80896947 122.94478471 -130.83251953 155.62207031 C-136.48523331 166.80716335 -140.81695932 178.24816851 -143.75 190.4375 C-143.91516113 191.11458008 -144.08032227 191.79166016 -144.25048828 192.48925781 C-149.19222994 213.94265127 -149.06796498 240.08189262 -143.75 261.4375 C-143.50056641 262.51644531 -143.50056641 262.51644531 -143.24609375 263.6171875 C-137.89763263 286.51652473 -127.19160707 306.74037729 -111.75 324.4375 C-111.14414063 325.16453125 -110.53828125 325.8915625 -109.9140625 326.640625 C-105.89930633 331.40020018 -101.54081954 335.46996572 -96.75 339.4375 C-95.67685547 340.35982422 -95.67685547 340.35982422 -94.58203125 341.30078125 C-77.45174409 355.61906147 -57.38709465 365.19952635 -35.75 370.4375 C-34.47253906 370.7571875 -33.19507813 371.076875 -31.87890625 371.40625 C-10.81002725 376.05042369 14.62992316 375.65749783 35.25 369.4375 C36.45785156 369.11007812 37.66570312 368.78265625 38.91015625 368.4453125 C66.99605133 360.0714983 90.94698456 343.16195038 112.88671875 324.2734375 C115.25 322.4375 115.25 322.4375 117.25 322.4375 C117.45891298 332.99042164 117.61863637 343.54284821 117.71630955 354.09741974 C117.76319911 358.99895985 117.8267501 363.89908116 117.92895508 368.79980469 C118.02704784 373.53319643 118.08061954 378.26522749 118.10389519 382.9995575 C118.12047205 384.80178749 118.15284591 386.60394639 118.20157051 388.40559387 C118.56717283 402.48966487 118.56717283 402.48966487 115.34373474 407.25648499 C113.07374275 409.31091524 110.87472436 410.87344938 108.25 412.4375 C106.75265848 413.53158318 105.2608238 414.63328804 103.77734375 415.74609375 C102.25348761 416.79794303 100.72335236 417.84074569 99.1875 418.875 C97.9509668 419.71067505 97.9509668 419.71067505 96.68945312 420.56323242 C64.29040107 442.20313045 30.3927704 451.12309993 -8.4375 450.875 C-9.93913193 450.87093643 -9.93913193 450.87093643 -11.47109985 450.86679077 C-27.21775968 450.80235744 -42.34229435 449.93454919 -57.75 446.4375 C-58.59336914 446.25558105 -59.43673828 446.07366211 -60.30566406 445.88623047 C-78.98635927 441.77618369 -97.0083323 434.64672722 -113.75 425.4375 C-114.37036133 425.09638184 -114.99072266 424.75526367 -115.62988281 424.40380859 C-129.92938675 416.4212202 -142.77974283 406.588172 -154.75 395.4375 C-156.14144666 394.22411781 -157.53708639 393.01552197 -158.9375 391.8125 C-165.4352913 386.12043482 -171.03606604 380.0421562 -176.44140625 373.296875 C-177.89901491 371.49151199 -179.38299988 369.70685041 -180.90234375 367.953125 C-210.6902979 333.26335561 -227.70763266 284.3796397 -227.953125 238.86328125 C-227.96018463 237.98507217 -227.96724426 237.1068631 -227.97451782 236.20204163 C-228.20338714 199.36973242 -228.20338714 199.36973242 -224.75 182.4375 C-224.55664062 181.4582959 -224.36328125 180.4790918 -224.1640625 179.47021484 C-217.04618829 144.43555467 -201.9943721 111.7356216 -178.75 84.4375 C-177.84979686 83.35324929 -176.95009397 82.26858313 -176.05078125 81.18359375 C-165.95478424 69.10094884 -155.18984976 58.12656608 -142.75 48.4375 C-141.81414062 47.67308594 -140.87828125 46.90867187 -139.9140625 46.12109375 C-118.96268377 29.34383289 -95.29775943 17.41445913 -69.75 9.4375 C-68.61473877 9.08196045 -68.61473877 9.08196045 -67.45654297 8.71923828 C-61.94038659 7.03591546 -56.38521198 5.66030417 -50.75 4.4375 C-49.85748535 4.23995117 -48.9649707 4.04240234 -48.04541016 3.83886719 C-32.08577468 0.48385694 -16.24447114 0.04322218 0 0 Z " fill="#FA5D6D" transform="translate(1957.75,244.5625)"/>
<path d="M0 0 C28.38 0 56.76 0 86 0 C86.01981934 12.90552979 86.03963867 25.81105957 86.06005859 39.10766602 C86.12494625 80.45975192 86.19948413 121.81181544 86.28005161 163.16387365 C86.29256961 169.59337981 86.30500252 176.02288614 86.31738281 182.45239258 C86.31984881 183.73232379 86.3223148 185.012255 86.32485552 186.33097201 C86.36451604 207.02124467 86.39729298 227.71152275 86.42749982 248.40181113 C86.45867803 269.65182159 86.4973144 290.90180918 86.54279006 312.1517939 C86.57058992 325.25084792 86.59265957 338.34988534 86.60726251 351.44896083 C86.61785219 360.44681896 86.63572434 369.44464481 86.65916704 378.44247855 C86.67245648 383.62394368 86.68268516 388.80536384 86.68421364 393.98684692 C86.6010215 429.54215081 86.6010215 429.54215081 90.75 464.8125 C90.91846436 465.75279053 91.08692871 466.69308105 91.26049805 467.66186523 C94.98254345 487.25358483 102.46803219 504.43070411 115 520 C115.78375 521.051875 116.5675 522.10375 117.375 523.1875 C121.5142763 527.62243889 126.2108205 531.2909887 131 535 C131.78375 535.61101563 132.5675 536.22203125 133.375 536.8515625 C159.64780886 556.28989067 192.1626846 559.63504361 223.84375 560.51953125 C224.91992144 560.55062642 224.91992144 560.55062642 226.01783371 560.58234978 C245.89582211 561.14941755 265.78011999 561.33168823 285.66448975 561.53222656 C291.5798958 561.59271603 297.49525025 561.65805755 303.41061401 561.72252655 C312.27370968 561.81860791 321.13684717 561.90876737 330 562 C330 586.09 330 610.18 330 635 C294.22433996 635.1209091 294.22433996 635.1209091 279.06445312 635.14648438 C268.65693655 635.16418482 258.24949359 635.1848245 247.84204102 635.22631836 C240.25743794 635.25654287 232.67289541 635.27564993 225.08823377 635.28226548 C221.08491679 635.28612282 217.0817728 635.29496119 213.07851219 635.31719017 C154.65303513 635.62844926 94.54847474 625.91377224 51 584 C50.36835937 583.43152344 49.73671875 582.86304688 49.0859375 582.27734375 C11.81994343 547.74889901 1.88672891 487.10812287 0 439 C-0.37358703 425.62880615 -0.25953485 412.24277256 -0.23213124 398.86792135 C-0.22338518 393.49954869 -0.22642468 388.13117992 -0.22793579 382.76280212 C-0.22897768 373.49185901 -0.2227745 364.22094435 -0.21146011 354.95000839 C-0.19511277 341.54627231 -0.18998773 328.1425498 -0.18748413 314.73880483 C-0.18312141 292.98504181 -0.16985119 271.2312939 -0.15087891 249.47753906 C-0.13248309 228.36263097 -0.11834476 207.247727 -0.10986328 186.1328125 C-0.10933783 184.82835225 -0.10881239 183.523892 -0.10827102 182.17990266 C-0.10566069 175.6349319 -0.10313333 169.08996111 -0.10064721 162.5449903 C-0.07995908 108.36331344 -0.04311345 54.18166457 0 0 Z " fill="#FA5D6D" transform="translate(49,51)"/>
<path d="M0 0 C1.97110346 0.00374134 3.94220881 0.00658299 5.91331482 0.00857544 C11.0407344 0.01612376 16.1680363 0.03569396 21.29541016 0.0579834 C27.47983112 0.08228037 33.66429198 0.09126481 39.84874725 0.10289001 C49.18961066 0.12212559 58.53021709 0.16050899 67.87109375 0.1953125 C67.87109375 21.9753125 67.87109375 43.7553125 67.87109375 66.1953125 C45.24609375 66.6328125 45.24609375 66.6328125 38.25927734 66.76342773 C28.13494451 66.96129207 18.01571508 67.21972161 7.8984375 67.65234375 C7.02943817 67.68734482 6.16043884 67.72234589 5.2651062 67.75840759 C-22.25842813 69.02617385 -49.22156573 76.52524901 -68.75390625 96.8203125 C-94.31965725 126.48920873 -91.14714034 168.86997376 -92.12890625 205.1953125 C-39.32890625 205.1953125 13.47109375 205.1953125 67.87109375 205.1953125 C67.87109375 227.3053125 67.87109375 249.4153125 67.87109375 272.1953125 C15.07109375 272.1953125 -37.72890625 272.1953125 -92.12890625 272.1953125 C-92.12890625 391.9853125 -92.12890625 511.7753125 -92.12890625 635.1953125 C-117.53890625 635.1953125 -142.94890625 635.1953125 -169.12890625 635.1953125 C-169.16275801 590.37259223 -169.195019 545.54987193 -169.21359253 500.72714233 C-169.21386864 500.06251622 -169.21414476 499.39789011 -169.21442924 498.71312382 C-169.22041668 484.26495436 -169.22595681 469.81678476 -169.23103691 455.36861495 C-169.23353133 448.28203884 -169.23612447 441.19546277 -169.23876953 434.10888672 C-169.23903105 433.40373102 -169.23929257 432.69857532 -169.23956201 431.97205126 C-169.24806695 409.16392253 -169.26307623 386.35580379 -169.28150069 363.5476811 C-169.30041802 340.08651828 -169.31268918 316.62536097 -169.31673623 293.16419066 C-169.3193555 278.06074816 -169.32768776 262.95733495 -169.34473918 247.85390167 C-169.35536113 237.93655373 -169.35849515 228.01922048 -169.355909 218.10186727 C-169.35463578 212.39142525 -169.35650235 206.68103314 -169.3673172 200.97060013 C-169.46534977 146.38644085 -168.310216 88.67032254 -129.12890625 46.1953125 C-128.25363281 45.23753906 -127.37835937 44.27976563 -126.4765625 43.29296875 C-94.09684326 9.39173554 -45.08044195 -0.25550253 0 0 Z " fill="#FA5D6D" transform="translate(837.12890625,50.8046875)"/>
<path d="M0 0 C25.74 0 51.48 0 78 0 C78 43.56 78 87.12 78 132 C123.54 132 169.08 132 216 132 C216 154.11 216 176.22 216 199 C170.46 199 124.92 199 78 199 C78.09069195 238.14653775 78.09069195 238.14653775 78.20898438 277.29296875 C78.22701388 282.58772719 78.24489424 287.88248607 78.26245117 293.17724609 C78.26465886 293.84073362 78.26686655 294.50422115 78.26914114 295.18781435 C78.30219595 305.19697765 78.32661048 315.2061327 78.34643555 325.21533203 C78.36949728 336.85156487 78.40298586 348.48771443 78.44870156 360.1238811 C78.47252394 366.27816908 78.49132443 372.43237513 78.49761391 378.58670807 C78.5037148 384.39467594 78.52389272 390.2024345 78.55427551 396.01032448 C78.56297628 398.12725934 78.56679513 400.24422164 78.56500816 402.36117363 C78.55143065 425.8951097 79.65920298 455.24956204 96.875 473.375 C102.75732132 479.15546294 109.7209231 482.64632198 117.5 485.125 C118.66305664 485.50338013 118.66305664 485.50338013 119.84960938 485.8894043 C135.52115715 490.8194386 151.41670036 492.05997775 167.7578125 492.53515625 C169.60040649 492.59262024 169.60040649 492.59262024 171.48022461 492.65124512 C176.02836836 492.79208452 180.57669562 492.92694692 185.125 493.0625 C195.31375 493.371875 205.5025 493.68125 216 494 C216 516.44 216 538.88 216 562 C198.69527704 562.12032643 198.69527704 562.12032643 191.11132812 562.14648438 C186.00877096 562.16416947 180.90638045 562.18468479 175.80395508 562.22631836 C130.35735286 562.5869122 73.43310591 561.95344104 38 529 C37.24847656 528.33871094 36.49695312 527.67742188 35.72265625 526.99609375 C6.49013762 499.86232005 1.64897242 453.71823147 0.20169258 416.2479229 C-0.2732813 401.42399182 -0.13235018 386.58202369 -0.11606562 371.75240791 C-0.11169651 366.75003881 -0.11321207 361.74767077 -0.1139679 356.74530029 C-0.11448908 348.10455576 -0.11138492 339.46381886 -0.10573006 330.82307625 C-0.09755973 318.33042601 -0.0949942 305.83777942 -0.09374207 293.3451268 C-0.09156019 273.07049586 -0.08492366 252.79586898 -0.07543945 232.52124023 C-0.06624289 212.8409019 -0.05917307 193.16056467 -0.05493164 173.48022461 C-0.05466892 172.26458606 -0.05440619 171.04894751 -0.05413551 169.79647142 C-0.05283035 163.69721088 -0.05156667 157.59795033 -0.05032361 151.49868977 C-0.03997793 100.99912291 -0.02155423 50.49956356 0 0 Z " fill="#FA5D6D" transform="translate(4309,124)"/>
<path d="M0 0 C6.40070167 0.03666533 12.80149304 0.04995952 19.20227051 0.06735992 C28.83617895 0.09607156 38.46951589 0.15369845 48.10345459 0.20599365 C48.10345459 22.31599365 48.10345459 44.42599365 48.10345459 67.20599365 C41.17345459 67.35036865 34.24345459 67.49474365 27.10345459 67.64349365 C21.92253548 67.76074584 16.74175535 67.88146331 11.56100464 68.00570679 C3.03344251 68.20982007 3.03344251 68.20982007 -0.94830322 68.28704834 C-49.73133414 69.27386427 -94.57635284 82.93404018 -129.51373291 117.8192749 C-146.4408083 135.6164336 -156.34064644 157.49156487 -161.89654541 181.20599365 C-162.16338135 182.30089111 -162.16338135 182.30089111 -162.43560791 183.41790771 C-170.96777331 219.96740197 -165.25501893 264.13783028 -145.66021729 296.230896 C-140.5016762 304.18465593 -134.43752456 311.35472137 -127.89654541 318.20599365 C-127.37189697 318.79380615 -126.84724854 319.38161865 -126.30670166 319.98724365 C-98.4921158 349.99585537 -52.57665747 361.11870658 -13.20904541 362.70599365 C-12.24804932 362.74587402 -11.28705322 362.78575439 -10.29693604 362.82684326 C9.15898424 363.56814504 28.63968492 363.81893005 48.10345459 364.20599365 C48.10345459 386.64599365 48.10345459 409.08599365 48.10345459 432.20599365 C27.01513395 432.32632008 27.01513395 432.32632008 17.83392334 432.35247803 C11.63608836 432.3702216 5.43838965 432.39090845 -0.75933838 432.43231201 C-77.54421827 432.93129736 -133.77221582 417.50316485 -189.89654541 364.20599365 C-190.40959229 363.72162842 -190.92263916 363.23726318 -191.45123291 362.73822021 C-227.39034112 328.60062822 -244.88921454 280.63492748 -246.1860199 231.54632568 C-246.26508848 227.07839245 -246.28134453 222.61204265 -246.27154541 218.14349365 C-246.27100159 217.20333405 -246.27045776 216.26317444 -246.26989746 215.29452515 C-246.2300039 200.24396147 -245.35199067 185.91029969 -241.89654541 171.20599365 C-241.69287354 170.29801025 -241.48920166 169.39002686 -241.27935791 168.45452881 C-233.60304696 134.97136073 -218.00566536 103.46309057 -195.89654541 77.20599365 C-195.46261475 76.68327881 -195.02868408 76.16056396 -194.581604 75.62200928 C-185.18681443 64.31603266 -175.24853275 53.5887587 -163.89654541 44.20599365 C-163.382854 43.77319092 -162.8691626 43.34038818 -162.33990479 42.89447021 C-115.91930474 3.89804021 -58.25846408 -0.36988443 0 0 Z " fill="#FA5D6D" transform="translate(1641.8965454101563,253.79400634765625)"/>
<path d="M0 0 C7.858125 0.061875 15.71625 0.12375 23.8125 0.1875 C23.8125 23.9475 23.8125 47.7075 23.8125 72.1875 C17.3775 72.435 10.9425 72.6825 4.3125 72.9375 C-11.43994319 73.63926359 -26.77352832 74.65474783 -42.1875 78.1875 C-42.98897461 78.36651855 -43.79044922 78.54553711 -44.61621094 78.72998047 C-74.00736438 85.50093875 -101.60821113 101.68956807 -117.88110352 127.61450195 C-130.18969301 147.84055203 -137.422842 169.86337754 -141.1875 193.1875 C-141.38958037 194.38901514 -141.38958037 194.38901514 -141.59574318 195.61480331 C-145.39861807 219.16281019 -144.66913955 243.07933823 -144.69361091 266.85393 C-144.70309659 273.03448347 -144.72930676 279.21496755 -144.75361633 285.39547729 C-144.79700805 297.05707543 -144.82572182 308.71865989 -144.84893972 320.38031375 C-144.87613933 333.67454152 -144.92004068 346.96868657 -144.96522844 360.2628634 C-145.05768259 387.57104725 -145.1273379 414.8792246 -145.1875 442.1875 C-170.9275 442.1875 -196.6675 442.1875 -223.1875 442.1875 C-223.1875 299.2975 -223.1875 156.4075 -223.1875 9.1875 C-197.4475 9.1875 -171.7075 9.1875 -145.1875 9.1875 C-144.8575 32.6175 -144.5275 56.0475 -144.1875 80.1875 C-140.8875 74.9075 -137.5875 69.6275 -134.1875 64.1875 C-113.69790719 36.07998166 -88.82457464 16.4006941 -55.375 5.9375 C-54.27599365 5.58594849 -54.27599365 5.58594849 -53.15478516 5.22729492 C-35.64769643 0.04654994 -18.11654968 -0.203005 0 0 Z " fill="#FA5D6D" transform="translate(2507.1875,243.8125)"/>
<path d="M0 0 C26.2774133 16.60143121 36.75828485 50.84234315 49.2644043 77.93798828 C52.962372 85.93707864 56.74870591 93.88906884 60.58984375 101.8203125 C65.57365526 112.11135546 70.4217976 122.458751 75.21484375 132.83984375 C78.93105214 140.87078448 82.73289914 148.85609274 86.58984375 156.8203125 C91.5736363 167.11136491 96.4217974 177.45875058 101.21484375 187.83984375 C105.44520415 196.98189663 109.79947924 206.05957368 114.19067383 215.12524414 C119.8932937 226.92660751 125.39340825 238.81941463 130.87573242 250.72436523 C131.91189207 252.93982582 132.99605287 255.13273074 134.08984375 257.3203125 C134.58484375 130.1053125 134.58484375 130.1053125 135.08984375 0.3203125 C149.93984375 0.3203125 164.78984375 0.3203125 180.08984375 0.3203125 C180.13512312 36.59304141 180.17089889 72.86576206 180.19197441 109.13851347 C180.19447561 113.4277102 180.19706428 117.71690687 180.19970703 122.00610352 C180.20023165 122.85995068 180.20075627 123.71379784 180.20129679 124.59351916 C180.20998266 138.3913107 180.22574256 152.18908546 180.24414934 165.98686706 C180.26289909 180.16069365 180.27397117 194.33451148 180.27802074 208.50834996 C180.2807553 217.24362869 180.28936995 225.97885997 180.30567668 234.71412409 C180.31630632 240.71659431 180.31943095 246.71904024 180.3168465 252.72151916 C180.31557445 256.17673733 180.31742599 259.63187297 180.3282547 263.08707619 C180.44446933 306.59714908 180.44446933 306.59714908 170.83984375 319.7578125 C162.06625529 327.93320174 153.29004703 328.77327608 141.84765625 328.59765625 C132.61387623 328.23558255 125.95561199 324.25049387 119.08984375 318.3203125 C118.50589844 317.83046875 117.92195313 317.340625 117.3203125 316.8359375 C101.86353665 302.73991618 93.82410857 278.04503697 85.27856445 259.48022461 C80.99719786 250.20299101 76.56940724 241.00327101 72.08984375 231.8203125 C66.58307835 220.52848561 61.20889675 209.18875883 55.953125 197.77734375 C51.93326379 189.07424523 47.78523403 180.43958794 43.58984375 171.8203125 C38.84512864 162.07246934 34.18787555 152.29293117 29.65234375 142.4453125 C24.59784163 131.47303934 19.36961869 120.59583202 14.07446289 109.73831177 C7.59016285 96.4356613 1.32019793 83.04181453 -4.85717773 69.59399414 C-5.52132328 68.15991403 -6.20337834 66.73386832 -6.91015625 65.3203125 C-7.24015625 151.1203125 -7.57015625 236.9203125 -7.91015625 325.3203125 C-22.43015625 325.3203125 -36.95015625 325.3203125 -51.91015625 325.3203125 C-51.97801905 287.81593411 -52.03170868 250.31157191 -52.06335224 212.80714445 C-52.06710422 208.37631234 -52.0709872 203.94548036 -52.07495117 199.51464844 C-52.0757381 198.63257419 -52.07652503 197.75049994 -52.07733581 196.84169617 C-52.09037879 182.57169324 -52.11402651 168.30172667 -52.14161464 154.03174528 C-52.1696997 139.38220885 -52.18633906 124.73269142 -52.19242173 110.08312917 C-52.19653175 101.04839449 -52.20949851 92.01376263 -52.23390565 82.97905961 C-52.24980114 76.778052 -52.254548 70.57709731 -52.25066038 64.37607083 C-52.24874475 60.80194346 -52.25161739 57.22799538 -52.26777267 53.65390015 C-52.28520164 49.76942537 -52.27908813 45.88518086 -52.2709198 42.00067139 C-52.27965832 40.88390479 -52.28839685 39.76713819 -52.29740018 38.61653018 C-52.23081722 26.85664002 -49.8700192 13.75767104 -41.6015625 4.7734375 C-30.84914411 -4.46420601 -12.82127789 -6.44443845 0 0 Z " fill="#FFC13B" transform="translate(3611.91015625,856.6796875)"/>
<path d="M0 0 C0.77241028 0.00021149 1.54482056 0.00042297 2.34063721 0.00064087 C14.29355064 0.03329403 25.4586662 0.78491206 36.9375 4.375 C38.06671875 4.725625 39.1959375 5.07625 40.359375 5.4375 C54.14238987 10.27836376 67.21601317 17.44114863 77.9375 27.375 C78.91074219 28.23351562 79.88398437 29.09203125 80.88671875 29.9765625 C104.98671873 51.96897262 113.22734939 84.69844693 114.84700084 116.11808896 C115.16347221 124.01040225 115.06590073 131.91726635 115.05102539 139.81420898 C115.05074275 141.93462116 115.05090275 144.05503344 115.0514679 146.17544556 C115.05175287 151.88719377 115.04590488 157.59892065 115.03889394 163.31066394 C115.03261021 169.29638734 115.03205265 175.28211133 115.03086853 181.26783752 C115.02776994 192.58274421 115.01957653 203.89764114 115.00951904 215.21254355 C114.99831201 228.10260857 114.99283592 240.99267408 114.98782361 253.88274276 C114.97739258 280.38016848 114.95906554 306.87758084 114.9375 333.375 C100.4175 333.375 85.8975 333.375 70.9375 333.375 C70.9375 286.845 70.9375 240.315 70.9375 192.375 C30.0175 192.375 -10.9025 192.375 -53.0625 192.375 C-53.0625 179.835 -53.0625 167.295 -53.0625 154.375 C-12.1425 154.375 28.7775 154.375 70.9375 154.375 C70.70692835 99.83636421 70.70692835 99.83636421 45.8828125 54.04296875 C29.65970981 40.13279837 9.20573891 39.91743837 -11.0625 41.375 C-16.31753959 42.02379527 -21.14865035 43.39958306 -26.0625 45.375 C-27.10921875 45.7875 -28.1559375 46.2 -29.234375 46.625 C-44.95720557 53.6483964 -54.28499062 66.48931792 -60.375 82.1875 C-65.48746664 96.14224073 -67.20296467 111.01879244 -67.22071838 125.81570435 C-67.22565636 126.71037946 -67.23059434 127.60505457 -67.23568195 128.52684104 C-67.25091696 131.49461759 -67.25937918 134.46237275 -67.26782227 137.43017578 C-67.27741183 139.56955652 -67.28742252 141.70893541 -67.29782104 143.84831238 C-67.32475941 149.63471384 -67.34582863 155.42112337 -67.36582303 161.20755243 C-67.38775117 167.26272187 -67.41510634 173.31786676 -67.44187927 179.37301636 C-67.49171409 190.82973529 -67.53668695 202.28646792 -67.57990164 213.74321353 C-67.62935292 226.79037185 -67.6842417 239.83750552 -67.73958123 252.88463998 C-67.85325981 279.7147381 -67.95941169 306.54485896 -68.0625 333.375 C-82.5825 333.375 -97.1025 333.375 -112.0625 333.375 C-112.13039734 305.07051597 -112.18558644 276.76609856 -112.21793652 248.46155357 C-112.23336096 235.31727544 -112.2543653 222.17305176 -112.28881836 209.02880859 C-112.31885678 197.563271 -112.33810708 186.09777287 -112.34476548 174.63219702 C-112.34865341 168.5694697 -112.35769692 162.5068552 -112.37969017 156.44416428 C-112.40028425 150.71996366 -112.40628824 144.99592071 -112.40182304 139.27168655 C-112.40263812 137.1878193 -112.40846555 135.10394593 -112.42011642 133.02011108 C-112.56149691 106.39272812 -109.09452011 80.38888067 -97.0625 56.375 C-96.60834717 55.46476074 -96.60834717 55.46476074 -96.14501953 54.53613281 C-84.29519088 31.28813653 -63.97064206 13.51592624 -39.10620117 5.27783203 C-26.13349452 1.13388058 -13.55350742 -0.03424158 0 0 Z " fill="#FFC13B" transform="translate(1887.0625,849.625)"/>
<path d="M0 0 C25.41 0 50.82 0 77 0 C77 142.89 77 285.78 77 433 C51.59 433 26.18 433 0 433 C0 290.11 0 147.22 0 0 Z " fill="#FA5D6D" transform="translate(478,253)"/>
<path d="M0 0 C2.15267145 -0.00960264 4.30434307 -0.04063747 6.45678711 -0.07226562 C36.77363789 -0.30573446 62.55641712 11.64784768 84.00170898 32.67773438 C105.05159563 53.89843593 112.63738047 80.16984592 112.55444336 109.4362793 C112.09148617 139.29916134 101.10452929 164.21866524 79.76733398 184.96679688 C67.09387956 196.42013612 51.73979696 203.40704914 35.25170898 207.24023438 C34.1395829 207.50211548 34.1395829 207.50211548 33.00498962 207.76928711 C24.63980402 209.5180287 16.36569123 209.49628477 7.86499023 209.43554688 C6.31129642 209.43180805 4.75760023 209.4289652 3.2039032 209.42697144 C-0.84844691 209.41940331 -4.90064937 209.39981505 -8.95294189 209.37756348 C-13.83482564 209.35332147 -18.71675927 209.34429152 -23.59868622 209.33265686 C-30.98198991 209.31338538 -38.36497085 209.27501578 -45.74829102 209.24023438 C-45.74829102 196.70023438 -45.74829102 184.16023438 -45.74829102 171.24023438 C-42.56430664 171.19125 -39.38032227 171.14226562 -36.09985352 171.09179688 C-32.95202676 171.03749979 -29.80426467 170.98030638 -26.65649414 170.92285156 C-24.49996941 170.88500654 -22.34339103 170.85008415 -20.18676758 170.81835938 C-9.65969845 170.66167742 0.82886118 170.47353812 11.30249023 169.33007812 C12.34975784 169.2167363 12.34975784 169.2167363 13.41818237 169.10110474 C29.12531444 167.18426722 43.33130835 160.13699519 53.47436523 147.80664062 C65.29410444 130.73945676 68.13453786 110.11183154 64.59545898 89.81445312 C60.56896166 73.1010181 51.22778656 59.0788517 36.81420898 49.74023438 C25.62962713 43.32809627 14.84020959 41.05543181 2.12670898 40.99023438 C1.14444336 40.96960938 0.16217773 40.94898438 -0.84985352 40.92773438 C-15.7450388 40.84933866 -29.56190692 46.21638402 -40.36547852 56.56835938 C-55.70419851 73.76784212 -60.88027191 96.21634423 -60.9065094 118.78846741 C-60.91144738 119.70678941 -60.91638535 120.62511141 -60.92147297 121.57126135 C-60.93673822 124.62506121 -60.94517859 127.67884024 -60.95361328 130.73266602 C-60.96320045 132.93101177 -60.97321101 135.1293557 -60.98361206 137.32769775 C-61.01057633 143.2794427 -61.03163165 149.2311955 -61.05161405 155.18296742 C-61.07352606 161.40897496 -61.10088917 167.6349585 -61.12767029 173.86094666 C-61.17186569 184.30564323 -61.21271269 194.75034845 -61.25097656 205.19506836 C-61.29038477 215.94963543 -61.33182361 226.70419155 -61.37597656 237.45874023 C-61.37870083 238.12247574 -61.38142511 238.78621124 -61.38423193 239.47005994 C-61.39791229 242.80007226 -61.41163455 246.1300844 -61.42537224 249.46009648 C-61.53908413 277.05345439 -61.64522546 304.64683451 -61.74829102 332.24023438 C-76.26829102 332.24023438 -90.78829102 332.24023438 -105.74829102 332.24023438 C-105.8146036 303.67923295 -105.8699278 275.1182904 -105.901487 246.55723094 C-105.90523849 243.17446567 -105.90912152 239.79170057 -105.91308594 236.40893555 C-105.91387287 235.73557451 -105.9146598 235.06221348 -105.91547058 234.36844756 C-105.92847409 223.50914458 -105.95209959 212.64988993 -105.9797494 201.79061548 C-106.00794515 190.62260807 -106.02427288 179.45461699 -106.0305565 168.28657359 C-106.03444716 162.02434765 -106.04350852 155.76223082 -106.06548119 149.50004005 C-106.0860492 143.58952773 -106.09208433 137.67916807 -106.08761406 131.76862335 C-106.08843027 129.61499638 -106.09427356 127.46136357 -106.10590744 125.30776787 C-106.19437374 108.06588843 -105.38574279 90.47478438 -100.06079102 73.92773438 C-99.8080542 73.1170752 -99.55531738 72.30641602 -99.29492188 71.47119141 C-91.24950248 46.78116074 -74.36131317 24.25216173 -51.21704102 11.98632812 C-34.71073338 3.67740975 -18.47004825 0.04955631 0 0 Z " fill="#FFC13B" transform="translate(1050.748291015625,850.759765625)"/>
<path d="M0 0 C2.6857019 0.00560824 5.37137961 0.0100205 8.05708313 0.01286316 C14.34994478 0.02209678 20.64264547 0.04658951 26.93543702 0.07691163 C34.11346907 0.11073035 41.2915098 0.12700985 48.46960199 0.14199793 C63.20508784 0.17314959 77.94040189 0.22804932 92.67578125 0.29296875 C92.67578125 12.83296875 92.67578125 25.37296875 92.67578125 38.29296875 C86.70871094 38.35355469 80.74164062 38.41414062 74.59375 38.4765625 C70.75194808 38.51718613 66.91015071 38.55802399 63.06835938 38.59960938 C57.00661084 38.66520499 50.94486187 38.73012257 44.88305664 38.7902832 C17.36468859 39.03992008 17.36468859 39.03992008 -10.14453125 39.75 C-11.19119461 39.78500107 -12.23785797 39.82000214 -13.3162384 39.85606384 C-28.8755501 40.47704273 -41.68180742 43.9637075 -53.19140625 54.9140625 C-60.56397136 63.1373082 -61.661031 74.64072713 -61.26171875 85.29296875 C-60.32606726 94.92592614 -57.35815213 103.7262492 -49.9362793 110.24975586 C-38.86879713 118.90699095 -25.78442568 124.58894191 -13.07421875 130.35546875 C-11.27128319 131.18149775 -9.46871764 132.00833482 -7.66650391 132.8359375 C-3.10092688 134.9300086 1.46914705 137.01402955 6.0411377 139.09405518 C10.13697864 140.95789717 14.23056259 142.82667811 18.32421875 144.6953125 C19.46103592 145.21405945 19.46103592 145.21405945 20.62081909 145.74328613 C27.68482061 148.96701822 34.74604188 152.19677074 41.8034668 155.43487549 C43.60184158 156.25908174 45.40148044 157.08052815 47.20117188 157.90185547 C68.48994108 167.64924137 88.26956804 178.92595778 99.67578125 200.29296875 C100.13339844 201.12828125 100.59101562 201.96359375 101.0625 202.82421875 C111.88862332 224.41144363 111.84812673 252.07552433 104.57421875 274.72265625 C98.02943755 293.0058192 85.82986658 307.59234769 68.19360352 316.1550293 C51.46815746 323.75029054 33.49904937 326.4591846 15.28320312 326.40649414 C13.94213869 326.40621163 12.60107411 326.40637124 11.26000977 326.40693665 C7.64075048 326.40722214 4.02152471 326.40136552 0.40227318 326.39436269 C-3.38802544 326.38808785 -7.17832492 326.38752209 -10.96862793 326.38633728 C-18.13656065 326.3832361 -25.30447802 326.37503914 -32.472404 326.36498779 C-40.63688188 326.35378888 -48.80136051 326.3483067 -56.96584415 326.34329236 C-73.75197941 326.33285546 -90.53809353 326.31452514 -107.32421875 326.29296875 C-107.32421875 313.75296875 -107.32421875 301.21296875 -107.32421875 288.29296875 C-104.32859863 288.2679126 -101.33297852 288.24285645 -98.24658203 288.21704102 C-88.28415009 288.13309292 -78.3217635 288.04447253 -68.35939217 287.95362949 C-62.32668814 287.89876001 -56.29397907 287.84540299 -50.26123047 287.7956543 C-44.42564107 287.74747328 -38.59010191 287.69512113 -32.75457382 287.640028 C-30.54217679 287.61984474 -28.32976613 287.60109641 -26.1173439 287.58389473 C-1.46367364 287.72265388 -1.46367364 287.72265388 22.92578125 284.66796875 C24.16654419 284.41345947 24.16654419 284.41345947 25.43237305 284.15380859 C36.73970942 281.62403164 48.45398033 276.62053088 55.3515625 266.94140625 C61.99245974 256.4491056 64.25281334 244.43655292 61.5859375 232.21484375 C56.36100355 215.44123604 45.76227985 205.71624976 30.5078125 197.609375 C27.16671564 195.89712765 23.79346808 194.25373708 20.4140625 192.61865234 C17.80328011 191.35469475 15.19622907 190.08325287 12.58987427 188.81019592 C-0.94880334 182.20062659 -14.5279738 175.6865983 -28.19921875 169.35546875 C-29.3605835 168.81736572 -30.52194824 168.2792627 -31.71850586 167.72485352 C-36.57919526 165.47631659 -41.44326477 163.23627405 -46.3203125 161.0234375 C-72.46849519 149.09040474 -93.96175603 133.33030281 -104.71484375 105.72265625 C-110.87153807 85.30150818 -109.4477483 60.05946778 -100.07421875 40.79296875 C-90.20877188 22.67148054 -75.00797119 11.89805819 -55.63671875 5.54296875 C-37.25572847 0.12123899 -19.04604736 -0.11808669 0 0 Z " fill="#FFC13B" transform="translate(794.32421875,856.70703125)"/>
<path d="M0 0 C3.4333721 0.03123684 6.86681732 0.04467224 10.30029297 0.05950928 C16.98229974 0.08963555 23.66316583 0.14840817 30.34521484 0.20599365 C30.34521484 12.74599365 30.34521484 25.28599365 30.34521484 38.20599365 C27.59177734 38.3039624 24.83833984 38.40193115 22.00146484 38.50286865 C-21.97679831 40.17476177 -62.52666705 45.56292911 -95.65478516 77.20599365 C-96.34056641 77.81700928 -97.02634766 78.4280249 -97.73291016 79.05755615 C-115.29024955 95.30155126 -121.41029175 118.56869549 -125.65478516 141.20599365 C-74.17478516 141.20599365 -22.69478516 141.20599365 30.34521484 141.20599365 C30.34521484 153.74599365 30.34521484 166.28599365 30.34521484 179.20599365 C-21.13478516 179.20599365 -72.61478516 179.20599365 -125.65478516 179.20599365 C-121.53814488 208.0224756 -113.54532984 225.70240125 -96.65478516 248.20599365 C-95.84122559 249.29122314 -95.84122559 249.29122314 -95.01123047 250.39837646 C-88.76131844 258.63973607 -82.86702368 266.14716688 -73.65478516 271.20599365 C-72.75630859 271.72161865 -71.85783203 272.23724365 -70.93212891 272.76849365 C-51.84551422 283.04392552 -29.99413324 285.96970304 -8.61962891 286.7411499 C-6.94073326 286.80561562 -6.94073326 286.80561562 -5.22792053 286.87138367 C-1.68281682 287.00681 1.86243668 287.13772223 5.40771484 287.26849365 C7.82374181 287.35999142 10.23975759 287.45178526 12.65576172 287.54388428 C18.55210883 287.76856486 24.44863752 287.9871297 30.34521484 288.20599365 C30.34521484 300.74599365 30.34521484 313.28599365 30.34521484 326.20599365 C22.87403368 326.26942821 15.40386442 326.3294665 7.93264771 326.3612442 C4.45123416 326.37689143 0.97005043 326.39768637 -2.51123047 326.43231201 C-49.15782799 326.88363129 -90.40867618 316.27962529 -124.65478516 283.20599365 C-125.44498047 282.46736084 -126.23517578 281.72872803 -127.04931641 280.9677124 C-137.29607763 271.15163816 -145.44503759 259.37490709 -152.65478516 247.20599365 C-153.26604248 246.17442139 -153.26604248 246.17442139 -153.88964844 245.12200928 C-174.41621799 209.83431679 -180.53373782 166.09021112 -171.65478516 126.20599365 C-171.43798096 125.20995117 -171.43798096 125.20995117 -171.21679688 124.19378662 C-165.19583785 97.42285585 -152.49169964 73.12341949 -133.65478516 53.20599365 C-132.50392655 51.85609519 -131.35786585 50.50208744 -130.21728516 49.14349365 C-111.48361287 27.80673707 -84.47947597 12.83557958 -57.27978516 5.45599365 C-56.59859619 5.26932129 -55.91740723 5.08264893 -55.21557617 4.89031982 C-52.70706859 4.254991 -50.19049798 3.72319109 -47.65478516 3.20599365 C-46.41591553 2.94197754 -45.1770459 2.67796143 -43.90063477 2.40594482 C-29.34252709 -0.43046057 -14.77706844 -0.14913213 0 0 Z " fill="#FFC13B" transform="translate(1363.65478515625,856.7940063476563)"/>
<path d="M0 0 C14.52 0 29.04 0 44 0 C44.04898438 6.6721875 44.09796875 13.344375 44.1484375 20.21875 C44.18387163 24.47527451 44.21985886 28.73178027 44.2578125 32.98828125 C44.31784748 39.72702176 44.3759638 46.46573638 44.421875 53.20458984 C44.45906716 58.64470917 44.50551341 64.08468159 44.55806351 69.52467346 C44.57642899 71.58799125 44.59160082 73.65134031 44.60334396 75.71470642 C44.74409555 99.61666336 45.81418671 124.3565426 62.4375 143.25 C75.72391775 155.536089 94.12986283 158.80922386 111.625 158.2890625 C126.54390735 157.51040023 141.26348607 152.41758178 151.6875 141.375 C162.81475368 127.74926575 166.10015237 109.88962536 166.20532227 92.75024414 C166.21522186 91.74460419 166.22512146 90.73896423 166.23532104 89.70285034 C166.26677043 86.39697581 166.2916277 83.09108694 166.31640625 79.78515625 C166.33699009 77.48587177 166.35798693 75.18659095 166.37937927 72.88731384 C166.43445224 66.8490598 166.48392646 60.81077245 166.53222656 54.77246094 C166.58254972 48.60543875 166.63817924 42.43846467 166.69335938 36.27148438 C166.80076015 24.18102923 166.90175435 12.09053301 167 0 C181.52 0 196.04 0 211 0 C211.06804518 14.30937881 211.12297087 28.6186484 211.15543652 42.92815304 C211.17102617 49.57416112 211.19214079 56.2200204 211.22631836 62.8659668 C211.25915219 69.29155681 211.27690328 75.71703461 211.28463173 82.1427021 C211.2901324 84.58203457 211.30087254 87.02136159 211.31719017 89.46064568 C211.42483264 106.23410348 210.88238171 122.25186591 205.25 138.25 C204.99323486 138.9932251 204.73646973 139.7364502 204.47192383 140.50219727 C196.67935512 162.26748617 181.56459224 178.70525257 161 189 C150.30895353 193.85120603 138.798718 198 127 198 C127 240.24 127 282.48 127 326 C112.48 326 97.96 326 83 326 C83 283.76 83 241.52 83 198 C80.03 197.67 77.06 197.34 74 197 C57.48673466 193.02521609 41.94270657 186.07407872 29 175 C28.27554688 174.38769531 27.55109375 173.77539062 26.8046875 173.14453125 C14.28425173 161.63064032 7.48403912 145.39259194 3.75 129.125 C3.59877686 128.46725586 3.44755371 127.80951172 3.29174805 127.13183594 C-0.07374709 111.08539839 -0.27469866 95.12481188 -0.1953125 78.80859375 C-0.19157309 76.52360662 -0.18873052 74.23861786 -0.18673706 71.95362854 C-0.17917361 65.99764421 -0.15958944 60.04176054 -0.1373291 54.08581543 C-0.11307425 46.90854217 -0.10405493 39.73123488 -0.09242249 32.55393219 C-0.07315948 21.70255188 -0.0347863 10.85139156 0 0 Z " fill="#FFC13B" transform="translate(2609,857)"/>
<path d="M0 0 C1.23165894 0.00141495 2.46331787 0.0028299 3.7322998 0.00428772 C7.64447516 0.00986013 11.55659211 0.02240758 15.46875 0.03515625 C18.1302075 0.04074143 20.79166444 0.04473709 23.453125 0.04882812 C29.95837364 0.05896723 36.46349686 0.07854813 42.96875 0.09765625 C42.96875 12.63765625 42.96875 25.17765625 42.96875 38.09765625 C40.11992187 38.195625 37.27109375 38.29359375 34.3359375 38.39453125 C-12.77968109 40.13175162 -52.10222281 47.37102005 -85.71875 82.91015625 C-106.62431528 106.87783869 -115.42342063 138.91928578 -113.8203125 170.3203125 C-111.52989227 203.22489815 -97.77456485 234.90559581 -74.03125 258.09765625 C-47.19548484 280.91019665 -15.28640615 285.83797998 18.71948242 286.64990234 C20.86646198 286.70239102 23.01329496 286.75931195 25.16015625 286.81640625 C26.42029541 286.84669922 27.68043457 286.87699219 28.97875977 286.90820312 C33.65364747 287.13017662 38.3118221 287.63196346 42.96875 288.09765625 C42.96875 300.63765625 42.96875 313.17765625 42.96875 326.09765625 C-14.9822429 326.70061456 -14.9822429 326.70061456 -37.03125 323.09765625 C-38.27455078 322.8968042 -38.27455078 322.8968042 -39.54296875 322.69189453 C-64.19118299 318.43419421 -86.22054649 305.11968012 -105.03125 289.09765625 C-105.55412598 288.65454102 -106.07700195 288.21142578 -106.61572266 287.75488281 C-137.18977625 261.55401936 -155.61353273 222.68193625 -159.82617188 182.87670898 C-163.23432519 136.6921743 -153.17246705 93.18193926 -122.78515625 57.45703125 C-120.57948853 54.95648817 -118.32468976 52.51786907 -116.03125 50.09765625 C-115.18949219 49.20304688 -114.34773438 48.3084375 -113.48046875 47.38671875 C-83.99033022 16.91499819 -42.26631718 -0.18430289 0 0 Z " fill="#FFC13B" transform="translate(4103.03125,856.90234375)"/>
<path d="M0 0 C1.23165894 0.00141495 2.46331787 0.0028299 3.7322998 0.00428772 C7.64447516 0.00986013 11.55659211 0.02240758 15.46875 0.03515625 C18.1302075 0.04074143 20.79166444 0.04473709 23.453125 0.04882812 C29.95837364 0.05896723 36.46349686 0.07854813 42.96875 0.09765625 C42.96875 12.63765625 42.96875 25.17765625 42.96875 38.09765625 C40.11992187 38.195625 37.27109375 38.29359375 34.3359375 38.39453125 C-12.77968109 40.13175162 -52.10222281 47.37102005 -85.71875 82.91015625 C-106.62431528 106.87783869 -115.42342063 138.91928578 -113.8203125 170.3203125 C-111.52989227 203.22489815 -97.77456485 234.90559581 -74.03125 258.09765625 C-47.19548484 280.91019665 -15.28640615 285.83797998 18.71948242 286.64990234 C20.86646198 286.70239102 23.01329496 286.75931195 25.16015625 286.81640625 C26.42029541 286.84669922 27.68043457 286.87699219 28.97875977 286.90820312 C33.65364747 287.13017662 38.3118221 287.63196346 42.96875 288.09765625 C42.96875 300.63765625 42.96875 313.17765625 42.96875 326.09765625 C-14.9822429 326.70061456 -14.9822429 326.70061456 -37.03125 323.09765625 C-38.27455078 322.8968042 -38.27455078 322.8968042 -39.54296875 322.69189453 C-64.19118299 318.43419421 -86.22054649 305.11968012 -105.03125 289.09765625 C-105.55412598 288.65454102 -106.07700195 288.21142578 -106.61572266 287.75488281 C-137.18977625 261.55401936 -155.61353273 222.68193625 -159.82617188 182.87670898 C-163.23432519 136.6921743 -153.17246705 93.18193926 -122.78515625 57.45703125 C-120.57948853 54.95648817 -118.32468976 52.51786907 -116.03125 50.09765625 C-115.18949219 49.20304688 -114.34773438 48.3084375 -113.48046875 47.38671875 C-83.99033022 16.91499819 -42.26631718 -0.18430289 0 0 Z " fill="#FFC13B" transform="translate(3152.03125,856.90234375)"/>
<path d="M0 0 C1.23165894 0.00141495 2.46331787 0.0028299 3.7322998 0.00428772 C7.64447516 0.00986013 11.55659211 0.02240758 15.46875 0.03515625 C18.1302075 0.04074143 20.79166444 0.04473709 23.453125 0.04882812 C29.95837364 0.05896723 36.46349686 0.07854813 42.96875 0.09765625 C42.96875 12.63765625 42.96875 25.17765625 42.96875 38.09765625 C40.11992188 38.195625 37.27109375 38.29359375 34.3359375 38.39453125 C-12.77968109 40.13175162 -52.10222281 47.37102005 -85.71875 82.91015625 C-106.62431528 106.87783869 -115.42342063 138.91928578 -113.8203125 170.3203125 C-111.52989227 203.22489815 -97.77456485 234.90559581 -74.03125 258.09765625 C-47.19548484 280.91019665 -15.28640615 285.83797998 18.71948242 286.64990234 C20.86646198 286.70239102 23.01329496 286.75931195 25.16015625 286.81640625 C26.42029541 286.84669922 27.68043457 286.87699219 28.97875977 286.90820312 C33.65364747 287.13017662 38.3118221 287.63196346 42.96875 288.09765625 C42.96875 300.63765625 42.96875 313.17765625 42.96875 326.09765625 C-14.9822429 326.70061456 -14.9822429 326.70061456 -37.03125 323.09765625 C-38.27455078 322.8968042 -38.27455078 322.8968042 -39.54296875 322.69189453 C-64.19118299 318.43419421 -86.22054649 305.11968012 -105.03125 289.09765625 C-105.55412598 288.65454102 -106.07700195 288.21142578 -106.61572266 287.75488281 C-137.18977625 261.55401936 -155.61353273 222.68193625 -159.82617188 182.87670898 C-163.23432519 136.6921743 -153.17246705 93.18193926 -122.78515625 57.45703125 C-120.57948853 54.95648817 -118.32468976 52.51786907 -116.03125 50.09765625 C-115.18949219 49.20304688 -114.34773438 48.3084375 -113.48046875 47.38671875 C-83.99033022 16.91499819 -42.26631718 -0.18430289 0 0 Z " fill="#FFC13B" transform="translate(1580.03125,856.90234375)"/>
<path d="M0 0 C68.97 0 137.94 0 209 0 C209 12.54 209 25.08 209 38 C181.94 38 154.88 38 127 38 C127 133.04 127 228.08 127 326 C112.48 326 97.96 326 83 326 C83 230.96 83 135.92 83 38 C55.61 38 28.22 38 0 38 C0 25.46 0 12.92 0 0 Z " fill="#FFC13B" transform="translate(2365,857)"/>
<path d="M0 0 C14.85 0 29.7 0 45 0 C45.01458252 6.81253418 45.02916504 13.62506836 45.04418945 20.64404297 C45.09306372 42.50219829 45.15650481 64.36029232 45.22898628 86.2183817 C45.24025292 89.62003405 45.25139162 93.02168681 45.26245117 96.42333984 C45.26465486 97.10047842 45.26685854 97.777617 45.269129 98.47527494 C45.30439271 109.40446567 45.32931828 120.33365635 45.35034702 131.26288269 C45.37219654 142.49759664 45.40555097 153.73223765 45.44870156 164.96689332 C45.47254788 171.26867052 45.49133283 177.57036734 45.49761391 183.87218857 C45.50370377 189.81639719 45.52384321 195.76040037 45.55427551 201.70453262 C45.5629936 203.87390969 45.56679142 206.04331367 45.56500816 208.21270752 C45.55259988 230.29382305 46.73894453 251.59704201 62 269 C75.55266521 282.19246149 92.97846467 285.74676458 111.25 286.5 C112.18078369 286.53988037 113.11156738 286.57976074 114.07055664 286.62084961 C132.37057884 287.34438806 150.69047476 287.61872056 169 288 C169 300.54 169 313.08 169 326 C149.50711866 326.12032643 149.50711866 326.12032643 141.0859375 326.14648438 C135.37881926 326.16429703 129.67184776 326.18518079 123.96484375 326.22631836 C119.35472399 326.2593347 114.74476196 326.27694033 110.13453293 326.28463173 C108.39100034 326.29010051 106.64747466 326.30077488 104.90401077 326.31719017 C75.75126191 326.58031695 47.28676636 320.51011805 25.671875 299.765625 C0.9575059 274.04250614 -0.17360429 236.4097756 -0.11352539 202.86987305 C-0.1132429 200.65123496 -0.11340247 198.43259678 -0.1139679 196.21395874 C-0.11425344 190.22524185 -0.10839599 184.23654522 -0.10139394 178.24783301 C-0.09511995 171.97648711 -0.09455341 165.70514068 -0.09336853 159.43379211 C-0.09061893 148.91883012 -0.0843833 138.40387434 -0.07543945 127.88891602 C-0.0662422 117.06469764 -0.05917271 106.24048127 -0.05493164 95.41625977 C-0.05466892 94.74760117 -0.05440619 94.07894257 -0.05413551 93.39002158 C-0.05283035 90.03512381 -0.05156667 86.68022603 -0.05032361 83.32532823 C-0.03988615 55.5502125 -0.02155551 27.77510948 0 0 Z " fill="#FFC13B" transform="translate(3233,857)"/>
<path d="M0 0 C14.85 0 29.7 0 45 0 C45.01458252 6.81253418 45.02916504 13.62506836 45.04418945 20.64404297 C45.09306372 42.50219829 45.15650481 64.36029232 45.22898628 86.2183817 C45.24025292 89.62003405 45.25139162 93.02168681 45.26245117 96.42333984 C45.26465486 97.10047842 45.26685854 97.777617 45.269129 98.47527494 C45.30439271 109.40446567 45.32931828 120.33365635 45.35034702 131.26288269 C45.37219654 142.49759664 45.40555097 153.73223765 45.44870156 164.96689332 C45.47254788 171.26867052 45.49133283 177.57036734 45.49761391 183.87218857 C45.50370377 189.81639719 45.52384321 195.76040037 45.55427551 201.70453262 C45.5629936 203.87390969 45.56679142 206.04331367 45.56500816 208.21270752 C45.55259988 230.29382305 46.73894453 251.59704201 62 269 C75.55266521 282.19246149 92.97846467 285.74676458 111.25 286.5 C112.18078369 286.53988037 113.11156738 286.57976074 114.07055664 286.62084961 C132.37057884 287.34438806 150.69047476 287.61872056 169 288 C169 300.54 169 313.08 169 326 C149.50711866 326.12032643 149.50711866 326.12032643 141.0859375 326.14648438 C135.37881926 326.16429703 129.67184776 326.18518079 123.96484375 326.22631836 C119.35472399 326.2593347 114.74476196 326.27694033 110.13453293 326.28463173 C108.39100034 326.29010051 106.64747466 326.30077488 104.90401077 326.31719017 C75.75126191 326.58031695 47.28676636 320.51011805 25.671875 299.765625 C0.9575059 274.04250614 -0.17360429 236.4097756 -0.11352539 202.86987305 C-0.1132429 200.65123496 -0.11340247 198.43259678 -0.1139679 196.21395874 C-0.11425344 190.22524185 -0.10839599 184.23654522 -0.10139394 178.24783301 C-0.09511995 171.97648711 -0.09455341 165.70514068 -0.09336853 159.43379211 C-0.09061893 148.91883012 -0.0843833 138.40387434 -0.07543945 127.88891602 C-0.0662422 117.06469764 -0.05917271 106.24048127 -0.05493164 95.41625977 C-0.05466892 94.74760117 -0.05440619 94.07894257 -0.05413551 93.39002158 C-0.05283035 90.03512381 -0.05156667 86.68022603 -0.05032361 83.32532823 C-0.03988615 55.5502125 -0.02155551 27.77510948 0 0 Z " fill="#FFC13B" transform="translate(2050,857)"/>
<path d="M0 0 C14.52 0 29.04 0 44 0 C44 107.58 44 215.16 44 326 C29.48 326 14.96 326 0 326 C0 218.42 0 110.84 0 0 Z " fill="#FFC13B" transform="translate(3856,857)"/>
<path d="M0 0 C14.52 0 29.04 0 44 0 C44 107.58 44 215.16 44 326 C29.48 326 14.96 326 0 326 C0 218.42 0 110.84 0 0 Z " fill="#FFC13B" transform="translate(3451,857)"/>
<path d="M0 0 C14.52 0 29.04 0 44 0 C44 107.58 44 215.16 44 326 C29.48 326 14.96 326 0 326 C0 218.42 0 110.84 0 0 Z " fill="#FFC13B" transform="translate(2267,857)"/>
<path d="M0 0 C14.52 0 29.04 0 44 0 C44 107.58 44 215.16 44 326 C29.48 326 14.96 326 0 326 C0 218.42 0 110.84 0 0 Z " fill="#FFC13B" transform="translate(1672,857)"/>
<path d="M0 0 C0.86238281 0.43570313 1.72476563 0.87140625 2.61328125 1.3203125 C17.27373852 9.46253915 25.96856574 21.13642835 31 37 C34.83623501 51.61654098 31.80951737 67.95358062 24.8515625 81.046875 C16.73936153 93.98532212 4.73189503 102.30227106 -9.82666016 106.53051758 C-24.33776141 109.6651893 -40.31633814 107.4213417 -53.1875 100.3125 C-67.02321828 91.32826735 -75.41513055 79.71393013 -79.58203125 63.7734375 C-82.04743666 47.41420532 -79.86705018 31.567194 -70 18 C-54.37085567 -2.26904656 -23.87224363 -12.22076701 0 0 Z " fill="#FA5D6D" transform="translate(539,77)"/>
</svg>
