<?xml version="1.0" encoding="UTF-8"?>
<svg version="1.1" xmlns="http://www.w3.org/2000/svg" width="3639" height="2662">
<path d="M0 0 C1.09168739 0.32894508 1.09168739 0.32894508 2.20542908 0.66453552 C11.21172878 3.43581799 20.05678669 6.67190069 28.90649414 9.90161133 C33.25630265 11.48896606 37.61025826 13.06480654 41.96395874 14.64144897 C44.27065558 15.47685858 46.57715145 16.31282329 48.88345337 17.14932251 C57.05648415 20.11227435 65.23797977 23.05078208 73.42578125 25.97265625 C74.58229187 26.38537781 75.73880249 26.79809937 76.93035889 27.22332764 C82.77717915 29.30872505 88.62520402 31.39070624 94.47412109 33.47021484 C106.22675176 37.6528343 117.95859929 41.88343196 129.66015625 46.20703125 C133.06725226 47.45894988 136.47482139 48.70957128 139.88256836 49.9597168 C142.02967314 50.7514988 144.1746118 51.54918424 146.31713867 52.35327148 C175.10332345 63.15524099 194.04283661 56.2894192 222.28757858 47.04177094 C228.0532427 45.15651467 233.82367373 43.28584915 239.59341621 41.41312027 C241.0701949 40.93373847 242.54691362 40.45417187 244.02357292 39.97442245 C259.78977227 34.85259932 275.5880347 29.83504617 291.3984375 24.8515625 C292.60531219 24.47070496 293.81218689 24.08984741 295.05563354 23.69744873 C298.47033005 22.62009227 301.88543004 21.54402899 305.30078125 20.46875 C306.28965332 20.15715942 307.27852539 19.84556885 308.29736328 19.52453613 C312.83731235 18.09818222 317.38091064 16.68388503 321.93237305 15.29467773 C323.11055855 14.9344175 323.11055855 14.9344175 324.31254578 14.56687927 C338.61743441 10.63630386 351.66786172 13.83995783 364.29742432 20.73156738 C372.17187943 25.26292788 379.629338 30.51264134 387.1484375 35.6015625 C388.94677212 36.8093289 390.74559821 38.01636382 392.54492188 39.22265625 C397.86103656 42.79146518 403.16291502 46.38096672 408.4609375 49.9765625 C409.76936111 50.86316055 409.76936111 50.86316055 411.10421753 51.76766968 C413.65476828 53.49720306 416.20284165 55.23031904 418.75 56.96484375 C419.87670357 57.72911179 419.87670357 57.72911179 421.02616882 58.50881958 C427.64627722 63.03025132 434.00407314 67.86629619 440.33203125 72.78515625 C443.74598028 75.43740169 447.20298238 78.02502503 450.67822266 80.59619141 C457.47739751 85.63146791 464.02833183 90.86485075 470.4375 96.38671875 C473.30378699 98.84194908 476.21319034 101.22952103 479.1484375 103.6015625 C483.51387319 107.15482411 487.72485767 110.84305345 491.87890625 114.640625 C493.98348383 116.544615 496.10844163 118.41549485 498.25 120.27734375 C522.48868089 141.44902015 543.29831841 164.38698889 558.4609375 192.9765625 C558.83879395 193.6684668 559.21665039 194.36037109 559.60595703 195.07324219 C567.82585819 210.28241202 572.65525301 226.89645263 577.94335938 243.28173828 C580.03810946 249.7710399 582.16846561 256.24838097 584.31625366 262.7203064 C584.7885043 264.14353893 585.25987604 265.5670634 585.7303772 266.99087524 C589.12362916 277.24685168 592.67262378 287.44195908 596.30078125 297.6171875 C596.72492813 298.80970123 597.14907501 300.00221497 597.58607483 301.23086548 C599.6980196 307.16662922 601.82082501 313.09807676 603.96313477 319.02294922 C610.82792003 338.1667827 615.6243325 356.141131 615.7109375 376.6015625 C615.741875 378.39400391 615.741875 378.39400391 615.7734375 380.22265625 C615.84020532 395.62932981 612.31097484 409.60985672 601.4609375 420.9765625 C596.22306911 425.77744386 590.7323281 430.23077407 585.0859375 434.5390625 C584.34641846 435.10334961 583.60689941 435.66763672 582.8449707 436.24902344 C573.56535361 443.25365728 566.6603129 448.17880994 554.8359375 448.1015625 C554.11954102 448.09962891 553.40314453 448.09769531 552.66503906 448.09570312 C548.81674162 448.06445849 545.03840757 447.91291902 541.2109375 447.4765625 C519.8983904 445.0651595 503.20650379 452.16163021 484.37106323 461.07608032 C480.82954672 462.75185751 477.28358345 464.41818847 473.73828125 466.0859375 C473.02718704 466.42071609 472.31609283 466.75549469 471.58345032 467.10041809 C465.36814192 470.02498162 459.13756976 472.91566518 452.8984375 475.7890625 C451.87580811 476.26005371 450.85317871 476.73104492 449.79956055 477.21630859 C447.59366933 478.23194914 445.38769215 479.24740301 443.18164062 480.26269531 C438.14321879 482.58258105 433.10797983 484.90936012 428.07249451 487.23561096 C423.93133375 489.14855682 419.78964348 491.06033828 415.64672852 492.96948242 C413.96629562 493.74394971 412.28587574 494.51844526 410.60546875 495.29296875 C409.76854996 495.67871567 408.93163116 496.06446259 408.0693512 496.4618988 C403.02268934 498.78972552 397.98145392 501.12885953 392.94424438 503.47706604 C337.35219289 529.38476456 337.35219289 529.38476456 318.4375 525.328125 C302.63922539 519.49721607 293.23427031 504.58277757 286.33349609 489.98681641 C278.24088653 471.34256707 276.26018019 450.19278467 283.4609375 430.9765625 C289.20524979 417.07711255 298.4509411 406.91002942 308.5625 396.08984375 C311.02157245 393.4571803 313.43751039 390.7897624 315.8359375 388.1015625 C320.21038453 383.21993321 324.68410656 378.43481212 329.16308594 373.64941406 C333.72276062 368.7754484 338.2430368 363.86765798 342.74609375 358.94140625 C345.66016076 355.75477762 348.59180186 352.58452033 351.5234375 349.4140625 C359.27227099 341.02666427 366.99963656 332.62219692 374.4609375 323.9765625 C374.89664062 323.47253906 375.33234375 322.96851563 375.78125 322.44921875 C381.60848983 315.70270846 387.37881012 308.91994855 393 302 C395.45995281 298.97777227 397.93616576 295.96960363 400.41650391 292.96411133 C402.82835657 290.04068338 405.23560799 287.11348355 407.64257812 284.18603516 C408.84824293 282.72104234 410.05526027 281.25716151 411.26367188 279.79443359 C424.05446825 264.30546868 433.81425505 250.42083406 436.4609375 229.9765625 C436.1309375 229.6465625 435.8009375 229.3165625 435.4609375 228.9765625 C432.37911397 229.61838466 432.37911397 229.61838466 431.50390625 231.8046875 C431.15972656 232.52140625 430.81554688 233.238125 430.4609375 233.9765625 C429.27829753 235.27066968 428.04387118 236.51852733 426.7734375 237.7265625 C424.18541593 240.1952965 421.78831077 242.73936599 419.46875 245.45703125 C414.7956432 250.84258199 409.7397268 255.84746752 404.69116211 260.87670898 C403.02667473 262.5358357 401.36760303 264.20024301 399.70898438 265.86523438 C394.64889765 270.92815657 389.58512973 275.91949289 384.11108398 280.54077148 C382.30781159 282.10979722 380.63419722 283.77026975 378.9609375 285.4765625 C376.70295807 287.76982286 374.40097246 289.94084278 371.9609375 292.0390625 C367.8558351 295.57490265 363.9109384 299.26986927 359.9609375 302.9765625 C355.54616138 307.11669161 351.11264905 311.20867285 346.52734375 315.16015625 C341.99562782 319.14361165 337.60306921 323.28426917 333.1796875 327.38720703 C331.48686178 328.9525899 329.78761633 330.51065627 328.0859375 332.06640625 C322.15311071 337.49801446 316.37181675 343.02422499 310.71875 348.75 C308.71272465 350.7282603 306.66459915 352.58497299 304.5234375 354.4140625 C297.30812642 360.60696108 290.54622302 367.46559246 284.390625 374.7109375 C282.85447953 376.51450911 281.29645369 378.28791573 279.71875 380.0546875 C272.48677496 388.2179736 266.13702207 396.66114911 260.4609375 405.9765625 C260.10016113 406.5648584 259.73938477 407.1531543 259.36767578 407.75927734 C244.05240564 433.21411777 239.20302841 463.3903368 246.1328125 492.3125 C251.98485361 514.09109608 265.04226161 532.37520654 284.4609375 543.9765625 C304.99676913 555.23733676 327.83670605 557.87888294 350.3359375 551.40258789 C353.74626534 550.35642653 357.10787038 549.1927843 360.4609375 547.9765625 C361.44586182 547.61933105 361.44586182 547.61933105 362.45068359 547.25488281 C382.3131049 539.87894319 400.65026117 529.01104011 418.8359375 518.2734375 C423.60376327 515.46336814 428.41806752 512.75663242 433.2734375 510.1015625 C443.66866989 504.39393319 453.82358235 498.27845716 464.01203918 492.21278381 C472.03783285 487.43831507 480.09180209 482.7114337 488.15844727 478.00634766 C489.35825928 477.30635556 490.55804807 476.60632365 491.7578125 475.90625 C492.33732162 475.56820343 492.91683075 475.23015686 493.51390076 474.88186646 C497.0005318 472.84368332 500.46416203 470.77153353 503.9140625 468.671875 C518.65854868 459.75725119 538.80885822 449.9765625 556.4609375 449.9765625 C555.75325656 454.70238254 554.02182649 458.84268408 552.21484375 463.23046875 C551.54009148 464.8925003 550.86553903 466.55461299 550.19116211 468.21679688 C549.83714325 469.08522217 549.48312439 469.95364746 549.11837769 470.84838867 C530.14347275 517.47676233 512.66516654 566.27176527 512.22265625 617.2421875 C512.20796547 618.65794823 512.20796547 618.65794823 512.19297791 620.10231018 C511.93517365 651.42239904 514.41266973 680.56171663 522.4609375 710.9765625 C522.80463379 712.29092285 522.80463379 712.29092285 523.15527344 713.63183594 C532.95796501 750.4097136 550.7368416 785.82899345 572.4609375 816.9765625 C572.9353125 817.66202148 573.4096875 818.34748047 573.8984375 819.05371094 C580.10261316 828.00856604 586.47073793 836.80073495 593.20019531 845.36865234 C594.52011651 847.05203752 595.83080867 848.74233703 597.140625 850.43359375 C602.93006724 857.88613617 608.89745507 865.1591537 615.04296875 872.3203125 C616.50105224 874.02341828 617.95040602 875.73365524 619.3984375 877.4453125 C624.74102426 883.74451992 630.16804528 889.94487117 635.80776978 895.98042297 C638.19174473 898.53204089 640.56410124 901.0905677 642.90722656 903.67993164 C652.04654703 913.7528106 661.67154588 923.34044909 671.29833984 932.94433594 C673.73774007 935.37799953 676.17256519 937.81618359 678.60612106 940.25568962 C680.9667433 942.62082222 683.33119788 944.98210825 685.6953125 947.34375 C686.55695007 948.2074118 687.41858765 949.07107361 688.30633545 949.96090698 C692.66038862 954.29825444 697.07245518 958.49591447 701.74908447 962.4848938 C704.45848125 964.8457988 706.95385988 967.40475314 709.4609375 969.9765625 C713.30943986 973.87805629 717.2254143 977.58502614 721.40234375 981.13671875 C724.53246912 983.93423117 727.44779408 986.94280756 730.39477539 989.92993164 C733.0001512 992.55696252 735.64555955 995.07656818 738.4609375 997.4765625 C742.31215819 1000.7595703 745.8438261 1004.33060762 749.39453125 1007.9296875 C751.99998982 1010.55679808 754.64547175 1013.07649334 757.4609375 1015.4765625 C761.31215819 1018.7595703 764.8438261 1022.33060762 768.39453125 1025.9296875 C770.99998982 1028.55679808 773.64547175 1031.07649334 776.4609375 1033.4765625 C779.79391651 1036.31779051 782.88702551 1039.36077873 785.9609375 1042.4765625 C789.01431701 1045.57147752 792.08417435 1048.59590527 795.3984375 1051.4140625 C798.93772928 1054.43009143 802.19587296 1057.6710512 805.4609375 1060.9765625 C808.64380924 1064.19866841 811.80783962 1067.36708782 815.2734375 1070.2890625 C820.0718033 1074.36314667 824.42767927 1078.89304252 828.83129883 1083.3840332 C831.89490282 1086.48972078 834.99220316 1089.48008998 838.3046875 1092.3203125 C844.20686496 1097.40958094 849.57369495 1103.04557385 855.0390625 1108.59375 C856.29976562 1109.86605469 856.29976562 1109.86605469 857.5859375 1111.1640625 C858.33101562 1111.92074219 859.07609375 1112.67742187 859.84375 1113.45703125 C861.94976772 1115.48446621 864.08482656 1117.40468617 866.29467773 1119.31469727 C870.36143529 1122.84601593 874.19479924 1126.56552667 877.99609375 1130.37890625 C878.67844589 1131.06030167 879.36079803 1131.74169708 880.06382751 1132.44374084 C881.49438187 1133.87361991 882.92369517 1135.30474161 884.35180664 1136.73706055 C886.51792824 1138.90853961 888.68933924 1141.07462575 890.86132812 1143.24023438 C892.26073737 1144.64030452 893.65983634 1146.04068488 895.05859375 1147.44140625 C895.69732925 1148.07811752 896.33606476 1148.7148288 896.99415588 1149.37083435 C901.34645626 1153.7454672 905.4414026 1158.29575525 909.4609375 1162.9765625 C910.43423848 1164.09432274 911.4080851 1165.21160843 912.3828125 1166.328125 C917.81330859 1172.59867167 923.0867668 1178.95478605 928.17041016 1185.50976562 C931.88412953 1190.28473695 935.72283731 1194.94702562 939.5859375 1199.6015625 C941.34126789 1201.73192675 943.09327951 1203.86492886 944.84228516 1206.00048828 C945.87308975 1207.25890945 946.90635619 1208.51532099 947.94287109 1209.76904297 C957.0280601 1220.83081771 957.0280601 1220.83081771 956.4609375 1227.9765625 C953.54811069 1238.43363481 948.20775652 1248.23183861 943.5234375 1257.9765625 C942.66560228 1259.77055436 941.80818435 1261.56474581 940.95117188 1263.35913086 C938.4612685 1268.56823599 935.96211938 1273.77286563 933.4609375 1278.9765625 C932.80056818 1280.3517011 932.14024526 1281.72686199 931.47998047 1283.10205078 C928.78583751 1288.7116656 926.08536216 1294.31819019 923.37890625 1299.921875 C920.95691238 1304.93949389 918.55652276 1309.96710364 916.16235352 1314.99804688 C907.59677971 1332.98138552 898.64665722 1350.66233743 889.03173828 1368.10839844 C887.43876405 1371.01704955 885.86661633 1373.93603276 884.30078125 1376.859375 C849.29945278 1442.16777382 807.96381447 1504.92958624 760.90527344 1562.21630859 C759.60948913 1563.79551834 758.31995952 1565.37985536 757.03125 1566.96484375 C748.83738545 1577.03950639 740.49463871 1586.94571915 731.7109375 1596.51171875 C729.84327047 1598.55772204 728.01724153 1600.62673407 726.2109375 1602.7265625 C715.97002926 1614.43045764 705.06721393 1625.47379769 694.0859375 1636.4765625 C693.4745694 1637.0905188 692.86320129 1637.7044751 692.23330688 1638.33703613 C680.36843004 1650.24146191 680.36843004 1650.24146191 674.125 1655.55761719 C671.5595814 1657.74514843 669.11538813 1660.05367562 666.6484375 1662.3515625 C662.00536561 1666.64086953 657.22652133 1670.70334869 652.30078125 1674.66796875 C649.7427496 1676.74746903 647.22950956 1678.86708532 644.72583008 1681.01098633 C638.41091816 1686.41396367 631.95549653 1691.59762556 625.30859375 1696.58837891 C624.02747221 1697.55091288 622.74900254 1698.51698268 621.47265625 1699.48583984 C601.66686857 1714.50094187 580.90093707 1728.40049955 559.4609375 1740.9765625 C558.66091309 1741.44723145 557.86088867 1741.91790039 557.03662109 1742.40283203 C494.36586577 1779.12086277 426.52551382 1806.83352079 354.6484375 1818.7890625 C353.49537109 1818.9840332 352.34230469 1819.17900391 351.15429688 1819.37988281 C327.75121124 1823.05565831 304.28037656 1823.30103464 280.65356445 1823.23730469 C276.34044358 1823.22577421 272.02756806 1823.23258916 267.7144556 1823.24444962 C264.34364492 1823.25170215 260.97289188 1823.24936708 257.60207939 1823.24419403 C256.0110515 1823.24287401 254.42001813 1823.2444464 252.82899666 1823.24915314 C244.52414898 1823.26839166 236.54857124 1823.14137064 228.4609375 1820.9765625 C228.4609375 1819.9865625 228.4609375 1818.9965625 228.4609375 1817.9765625 C232.53065919 1817.27287357 236.60069705 1816.57104208 240.67098999 1815.8706665 C242.20669429 1815.60636909 243.74235873 1815.34184002 245.27798462 1815.0770874 C255.20059809 1813.36759637 265.12835823 1811.69560217 275.06640625 1810.078125 C322.92730684 1802.27503112 370.3751742 1793.35649553 416.4609375 1777.9765625 C417.52812012 1777.62126465 418.59530273 1777.2659668 419.69482422 1776.89990234 C460.6038314 1763.11226192 504.44503374 1744.11200017 531.4609375 1708.9765625 C532.11707031 1708.15929688 532.77320312 1707.34203125 533.44921875 1706.5 C558.24277984 1674.40252412 565.67152679 1631.04845167 560.81152344 1591.57714844 C558.40530217 1573.72821463 553.88549895 1550.38280894 542.4609375 1535.9765625 C532.93747072 1530.22365836 517.54560115 1535.3148378 507.2109375 1536.9765625 C504.50425672 1537.40835633 501.7972564 1537.83759025 499.08917236 1538.26049805 C497.41542385 1538.52216842 495.74246285 1538.78894714 494.07049561 1539.06176758 C486.93214516 1540.18296855 480.79447537 1541.10713067 474.4609375 1536.9765625 C469.78186875 1532.03885176 466.94184554 1526.52235412 463.8984375 1520.4765625 C462.83507618 1518.40144973 461.76992689 1516.32725235 460.703125 1514.25390625 C460.16397461 1513.20444824 459.62482422 1512.15499023 459.06933594 1511.07373047 C456.6207659 1506.35870929 454.07977883 1501.69631477 451.5234375 1497.0390625 C450.52341595 1495.21615766 449.52341616 1493.39324087 448.5234375 1491.5703125 C448.02199219 1490.65636719 447.52054688 1489.74242187 447.00390625 1488.80078125 C445.41692811 1485.8960086 443.84316971 1482.98443824 442.2734375 1480.0703125 C436.90774256 1470.10972565 431.48633395 1460.18950251 425.8984375 1450.3515625 C396.37192412 1398.26616799 396.37192412 1398.26616799 401.4609375 1374.1015625 C408.35622325 1349.96806236 427.26184412 1332.39613925 445.73461914 1316.47363281 C453.14484648 1310.04745349 459.45627544 1302.70632084 465.4609375 1294.9765625 C466.06808594 1294.20957031 466.67523437 1293.44257812 467.30078125 1292.65234375 C480.89192935 1274.49999402 486.22656722 1253.06267502 483.13574219 1230.61474609 C479.29004845 1209.641212 468.21324585 1188.707793 451.05078125 1175.75 C429.45330234 1160.96077613 403.02716529 1156.64395014 377.3515625 1160.66796875 C372.97041183 1161.50260598 368.71442001 1162.64191603 364.4609375 1163.9765625 C363.78949707 1164.18555176 363.11805664 1164.39454102 362.42626953 1164.60986328 C339.9982759 1171.83335459 320.480964 1185.09548055 302.97851562 1200.63085938 C301.46685949 1201.97131122 299.94095422 1203.29414269 298.4140625 1204.6171875 C258.77001231 1239.43689717 239.51332991 1291.37831138 235.77734375 1343.015625 C231.95694253 1407.38557608 248.53200407 1469.55499795 274.4609375 1527.9765625 C275.90572949 1531.25204073 277.34771794 1534.5286908 278.78466797 1537.80761719 C279.67167774 1539.82808127 280.56490708 1541.84583019 281.46533203 1543.86035156 C281.85962402 1544.75334961 282.25391602 1545.64634766 282.66015625 1546.56640625 C283.00908936 1547.34878662 283.35802246 1548.13116699 283.7175293 1548.93725586 C284.4609375 1550.9765625 284.4609375 1550.9765625 284.4609375 1553.9765625 C225.0609375 1553.9765625 165.6609375 1553.9765625 104.4609375 1553.9765625 C103.33701382 1546.10909672 103.33701382 1546.10909672 103.13549805 1542.71069336 C103.08824081 1541.94598724 103.04098358 1541.18128113 102.99229431 1540.3934021 C102.94456375 1539.58424347 102.89683319 1538.77508484 102.84765625 1537.94140625 C102.73606404 1536.16019285 102.62372945 1534.37902584 102.51074219 1532.59790039 C102.45221069 1531.67091339 102.3936792 1530.74392639 102.33337402 1529.78884888 C96.08970785 1432.73280971 66.13984354 1339.34455216 7.4609375 1260.9765625 C6.78853027 1260.07454102 6.78853027 1260.07454102 6.10253906 1259.15429688 C0.68950556 1251.91779637 -5.01045122 1244.95595737 -10.890625 1238.09765625 C-13.3206186 1235.25566589 -15.64984389 1232.3413601 -17.9765625 1229.4140625 C-21.74997883 1224.76673108 -25.81639111 1220.54185943 -30.11499023 1216.38647461 C-32.86704285 1213.71419163 -35.44281627 1210.96719524 -37.94140625 1208.0546875 C-41.39046715 1204.06836177 -45.0976272 1200.47754222 -48.9765625 1196.9140625 C-50.38166142 1195.61083987 -51.78660464 1194.30744935 -53.19140625 1193.00390625 C-53.9066748 1192.34245605 -54.62194336 1191.68100586 -55.35888672 1190.99951172 C-57.53346409 1188.98175717 -59.69643514 1186.95233891 -61.85546875 1184.91796875 C-62.55679932 1184.25740479 -63.25812988 1183.59684082 -63.98071289 1182.91625977 C-65.30734192 1181.66610348 -66.63339554 1180.41533615 -67.95874023 1179.16381836 C-71.80835452 1175.54543336 -75.7301922 1172.02722056 -79.71777344 1168.56152344 C-81.97237382 1166.5994771 -84.19597936 1164.60474485 -86.4140625 1162.6015625 C-87.67863281 1161.46074219 -87.67863281 1161.46074219 -88.96875 1160.296875 C-89.81695313 1159.53117187 -90.66515625 1158.76546875 -91.5390625 1157.9765625 C-93.20547101 1156.47627571 -94.87213603 1154.97627378 -96.5390625 1153.4765625 C-97.35890625 1152.73664063 -98.17875 1151.99671875 -99.0234375 1151.234375 C-100.7339787 1149.69913771 -102.4530905 1148.17340772 -104.1796875 1146.65625 C-119.11074241 1133.46864162 -119.11074241 1133.46864162 -120.35546875 1122.2578125 C-120.47986328 1121.15953125 -120.60425781 1120.06125 -120.73242188 1118.9296875 C-120.85423828 1117.79015625 -120.97605469 1116.650625 -121.1015625 1115.4765625 C-121.22724609 1114.36796875 -121.35292969 1113.259375 -121.48242188 1112.1171875 C-131.16553784 1024.91844689 -120.29119351 930.99073766 -73.5390625 795.9765625 C-73.09224121 795.00315918 -72.64541992 794.02975586 -72.18505859 793.02685547 C-59.85788745 766.38538189 -45.79245391 740.90456845 -30.36621094 715.95410156 C-27.94925611 712.01540821 -25.60949529 708.03512245 -23.2890625 704.0390625 C-19.82808831 698.09850869 -16.24085715 692.24689694 -12.6015625 686.4140625 C27.69419528 621.66734943 70.27912179 550.1051195 74.4609375 471.9765625 C74.52474609 470.80480469 74.52474609 470.80480469 74.58984375 469.609375 C75.51234859 434.06218859 61.1344395 400.97128845 41.77929688 371.98046875 C39.65749591 368.75533128 37.64003098 365.47081125 35.6484375 362.1640625 C35.27565674 361.54708496 34.90287598 360.93010742 34.51879883 360.29443359 C32.29350391 356.5507316 30.39432154 352.75617279 28.5859375 348.7890625 C23.16289469 337.70394469 14.22216783 329.75727469 3.4609375 323.9765625 C2.89310547 323.66799316 2.32527344 323.35942383 1.74023438 323.04150391 C-18.08635596 312.37013323 -38.5510206 305.49913595 -60.6640625 301.4765625 C-75.30564124 298.58303236 -85.52910353 290.02180438 -93.7890625 277.8515625 C-106.69388211 258.01740487 -112.61397127 234.46827306 -113.5390625 210.9765625 C-113.57990967 209.9541748 -113.57990967 209.9541748 -113.62158203 208.91113281 C-115.92351033 141.59058819 -83.76475942 59.81816928 -38.6015625 10.1015625 C-27.31000592 -1.75291625 -15.88223049 -4.87882836 0 0 Z " fill="#FA5D6D" transform="translate(1641.5390625,550.0234375)"/>
<path d="M0 0 C1.13953125 0.55558594 2.2790625 1.11117188 3.453125 1.68359375 C33.3189136 17.00573411 53.78247402 43.20171932 64.75 74.4375 C69.69755035 90.06574182 72.23573207 105.47679145 72.25 121.875 C72.25067474 122.56941193 72.25134949 123.26382385 72.25204468 123.97927856 C72.23562425 134.61342262 71.72045931 144.66443974 69 155 C68.82839355 155.65387695 68.65678711 156.30775391 68.47998047 156.98144531 C58.62026914 193.5478457 35.80763879 222.11042929 3.30859375 241.19140625 C-28.41592421 259.22761626 -66.71738515 263.63683921 -101.80541992 254.00073242 C-104.05785256 253.34995784 -106.3007094 252.67314667 -108.54296875 251.98828125 C-111.88148812 250.86256769 -111.88148812 250.86256769 -115 251 C-123.57773477 267.68256643 -131.48852289 284.60651915 -139.17033386 301.71481323 C-141.2736341 306.39712213 -143.39916044 311.06869427 -145.5390625 315.734375 C-181.78538382 394.89167614 -211.92020022 477.75715621 -271.88598633 813.13726807 C-271.9642242 815.10171726 -272.04595048 817.0660297 -272.13061523 819.0302124 C-273.1235391 842.14224115 -273.24521772 865.24487332 -273.25 888.375 C-273.25044186 889.35831425 -273.25088371 890.34162849 -273.25133896 891.35474014 C-273.25817521 920.44537106 -273.06956433 949.40440636 -270.25323486 978.38458252 C-269.98736298 981.13051555 -269.73311815 983.87737721 -269.47998047 986.62451172 C-262.60540538 1060.32051677 -247.91160022 1133.17814312 -225.69537354 1203.78814697 C-224.98276978 1206.05480611 -224.27506632 1208.32295672 -223.56787109 1210.59130859 C-207.61455055 1261.63290698 -187.56583248 1310.98743317 -164 1359 C-163.37448283 1360.27846894 -162.74899566 1361.55695256 -162.12353516 1362.83544922 C-154.13037713 1379.15123125 -145.92970299 1395.27453168 -136.76611328 1410.97265625 C-135.50383101 1413.13636929 -134.24666209 1415.30247881 -132.99560547 1417.47265625 C-124.50956465 1432.19242225 -115.85710229 1446.74817625 -106.4140625 1460.88183594 C-105.08960901 1462.86577214 -103.77708484 1464.85697291 -102.46875 1466.8515625 C-81.51011657 1498.70597933 -58.6235199 1529.40891947 -33.87792969 1558.42114258 C-31.06962886 1561.71644087 -28.33315716 1565.05968943 -25.625 1568.4375 C-21.54908898 1573.45175024 -17.21147206 1578.18042287 -12.77978516 1582.87866211 C-10.03748651 1585.7878202 -7.3490104 1588.72741975 -4.73120117 1591.74951172 C-1.25871288 1595.72690517 2.29670688 1599.61541927 5.91015625 1603.46484375 C6.87297264 1604.49072853 6.87297264 1604.49072853 7.85523987 1605.53733826 C14.56413034 1612.65008266 21.43998565 1619.59167911 28.36401367 1626.49438477 C30.46457104 1628.58950092 32.55961874 1630.6900231 34.65429688 1632.79101562 C36.01790811 1634.15396713 37.38182893 1635.51660897 38.74609375 1636.87890625 C39.66351601 1637.79936485 39.66351601 1637.79936485 40.59947205 1638.73841858 C44.32030388 1642.43942658 48.15753598 1645.95418917 52.13575745 1649.37730408 C55.337819 1652.16448014 58.41105899 1655.08882527 61.5 1658 C66.58611841 1662.76664017 71.69862892 1667.47255171 77 1672 C78.06799499 1672.92154289 79.1356722 1673.84345413 80.203125 1674.765625 C87.38061938 1680.95570786 94.63855396 1687.02915737 102 1693 C103.22575053 1694.00721634 104.45097692 1695.01507076 105.67578125 1696.0234375 C114.28401615 1703.09243751 123.0524568 1709.88901366 132.00439453 1716.51611328 C133.9990632 1717.99930341 135.98342657 1719.49525693 137.96484375 1720.99609375 C146.70299041 1727.6102284 155.56482605 1734.01843817 164.55273438 1740.28857422 C167.29580308 1742.20686149 170.03059783 1744.13667263 172.765625 1746.06640625 C174.78102148 1747.48209622 176.79664473 1748.89746339 178.8125 1750.3125 C180.20770874 1751.29911621 180.20770874 1751.29911621 181.63110352 1752.30566406 C186.46544396 1755.68658454 191.36618673 1758.94437713 196.38671875 1762.04296875 C197.34151123 1762.63489014 198.29630371 1763.22681152 199.2800293 1763.83666992 C202.45062892 1765.19273376 203.78407926 1765.13899309 207 1764 C209.01379899 1762.38434465 210.7979886 1760.80228131 212.625 1759 C213.69055477 1757.98731251 214.75830486 1756.97693043 215.828125 1755.96875 C216.36115234 1755.46472656 216.89417969 1754.96070312 217.44335938 1754.44140625 C221.44074388 1750.73993854 225.73946023 1747.38998293 230 1744 C230.51224121 1743.58814453 231.02448242 1743.17628906 231.55224609 1742.75195312 C241.43939454 1734.80398852 251.62777537 1727.30185734 262 1720 C262.6192334 1719.56333008 263.2384668 1719.12666016 263.87646484 1718.67675781 C302.11331197 1691.92687475 345.11521679 1672.69752388 390.9375 1663.6875 C391.67959717 1663.54014404 392.42169434 1663.39278809 393.1862793 1663.2409668 C409.2117932 1660.30991009 425.30727151 1659.62151149 441.5625 1659.6875 C442.52455353 1659.68965515 443.48660706 1659.6918103 444.47781372 1659.69403076 C459.84673596 1659.74907488 474.82396563 1660.38043135 490 1663 C490.98403809 1663.16145508 491.96807617 1663.32291016 492.98193359 1663.48925781 C512.14700547 1666.73591698 530.81244009 1672.10062415 549.54968262 1677.18453979 C641.30069601 1702.05798133 735.20229296 1717.85978461 829.92181396 1725.74285889 C832.88016916 1725.98998974 835.83777134 1726.24495061 838.79541016 1726.50048828 C866.33526057 1728.8327955 893.85754981 1729.30632192 921.48002243 1729.36791611 C924.04067523 1729.37477416 926.60126601 1729.38639107 929.16189575 1729.39907837 C980.34778827 1729.61685434 1031.40879158 1725.49505989 1082.42000169 1721.67886913 C1087.61289927 1721.29051368 1092.80603123 1720.90541769 1097.9992981 1720.52203369 C1126.08904558 1718.44773362 1154.17859192 1716.37137916 1182.24609375 1714.01171875 C1183.11400166 1713.93880552 1183.98190956 1713.8658923 1184.87611771 1713.79076958 C1192.51653703 1713.14724086 1200.15583194 1712.4926626 1207.792593 1711.80701351 C1220.89418942 1710.63231718 1233.8400689 1709.59522471 1247 1710 C1252.83276772 1720.76258389 1252.4089385 1733.21817924 1252.375 1745.1875 C1252.37418427 1746.27475372 1252.37418427 1746.27475372 1252.37335205 1747.38397217 C1252.33439411 1758.69517596 1251.57195472 1769.20624274 1248 1780 C1247.79101074 1780.64485352 1247.58202148 1781.28970703 1247.36669922 1781.95410156 C1242.58757567 1796.32369103 1234.52939905 1808.20061636 1224 1819 C1222.7934375 1820.2684375 1222.7934375 1820.2684375 1221.5625 1821.5625 C1220.2940625 1822.7690625 1220.2940625 1822.7690625 1219 1824 C1218.3296875 1824.65355469 1217.659375 1825.30710937 1216.96875 1825.98046875 C1210.22951411 1832.33679351 1202.94782979 1837.32504472 1195 1842 C1194.37270996 1842.37125 1193.74541992 1842.7425 1193.09912109 1843.125 C1140.87421816 1873.54881198 1072.22164112 1879.29369934 1013 1883 C1012.18382202 1883.05220703 1011.36764404 1883.10441406 1010.5267334 1883.15820312 C952.57016779 1886.82522988 893.96269718 1886.05726653 836 1883 C834.31454071 1882.91232361 834.31454071 1882.91232361 832.59503174 1882.82287598 C789.03832259 1880.53944127 745.5483915 1877.18819667 702.05810547 1873.90576172 C680.56931966 1872.28525719 659.07964999 1870.69710906 637.578125 1869.25390625 C636.61591789 1869.18876265 635.65371078 1869.12361904 634.66234589 1869.05650139 C631.9667786 1868.87460079 629.27103557 1868.69562627 626.57519531 1868.51782227 C625.78949913 1868.46471704 625.00380295 1868.41161182 624.19429779 1868.35689735 C620.12189131 1868.0926835 616.08088758 1867.94639988 612 1868 C620.87503608 1877.83635527 629.8298184 1887.59965293 639.9296875 1896.20703125 C642.3827411 1898.33146824 644.74703147 1900.54188637 647.125 1902.75 C652.88042646 1907.9915491 658.91749868 1912.78918983 665.09033203 1917.52734375 C667.04808352 1919.03708 668.99141848 1920.5640426 670.93359375 1922.09375 C748.35669553 1982.70831585 841.69430956 2007.22930144 1054 2005 C1111.78718333 1997.76374361 1171.57027951 1988.19173122 1227 1970 C1228.65999023 1969.45641846 1228.65999023 1969.45641846 1230.35351562 1968.90185547 C1257.49495597 1959.8737794 1283.3899589 1947.92918145 1309.23925781 1935.76708984 C1312.56979139 1934.20044683 1315.90480154 1932.64353519 1319.24066162 1931.08827209 C1343.88514576 1919.5957502 1368.32510922 1907.819155 1392.10400391 1894.60400391 C1395.19145701 1892.8939578 1398.28847698 1891.20213282 1401.38671875 1889.51171875 C1416.7965267 1881.07124427 1431.83872711 1872.14620376 1446.80566406 1862.95117188 C1450.61980375 1860.62141 1454.45802759 1858.3343623 1458.30151367 1856.0534668 C1466.73328917 1851.04686952 1474.96188224 1845.82483081 1483.06787109 1840.30810547 C1485.91143209 1838.38293491 1488.77482569 1836.48797969 1491.63647461 1834.58984375 C1519.11920903 1816.34772316 1545.89327245 1797.16257283 1572 1777 C1572.73605469 1776.4328125 1573.47210937 1775.865625 1574.23046875 1775.28125 C1584.35736183 1767.47256136 1594.36565211 1759.53456793 1604.25585938 1751.42822266 C1605.82908924 1750.13995352 1607.40648248 1748.85677275 1608.984375 1747.57421875 C1612.71397818 1744.53987397 1616.43318608 1741.50032697 1620.0703125 1738.35546875 C1645.44864251 1716.43834628 1673.50874648 1701.35755936 1708 1703 C1735.42336833 1705.4759384 1755.97546055 1718.97546055 1775 1738 C1774.83175632 1742.19674523 1771.76499941 1744.94915175 1769.125 1747.9375 C1768.115688 1749.10399588 1767.10657892 1750.27066737 1766.09765625 1751.4375 C1765.58090332 1752.03046875 1765.06415039 1752.6234375 1764.53173828 1753.234375 C1762.18027399 1755.94489297 1759.87337155 1758.69239331 1757.5625 1761.4375 C1749.48754906 1770.9848397 1741.40783129 1780.52039521 1733.00390625 1789.78125 C1731.18688018 1791.79308393 1729.40055608 1793.82660434 1727.625 1795.875 C1721.21737923 1803.22141172 1714.6640868 1810.44915011 1707.69750977 1817.27001953 C1706.07954971 1818.91892863 1704.59479277 1820.62167475 1703.10546875 1822.38671875 C1698.26260332 1827.95186661 1693.02642289 1833.12311139 1687.80297852 1838.32739258 C1686.066064 1840.058947 1684.33456111 1841.79578359 1682.60351562 1843.53320312 C1677.40701997 1848.73249214 1672.19997897 1853.84182449 1666.60327148 1858.61499023 C1664.45573074 1860.47017505 1662.47530664 1862.46391469 1660.5 1864.5 C1657.19013302 1867.84933729 1653.79253051 1870.99925956 1650.21875 1874.0625 C1648.01600045 1875.98602777 1645.866863 1877.96105114 1643.72338867 1879.95019531 C1638.51286584 1884.78386425 1633.17706812 1889.37055432 1627.63671875 1893.828125 C1625.07579972 1895.93756349 1622.62876545 1898.12887648 1620.1875 1900.375 C1615.83869394 1904.33405457 1611.30552542 1907.96565698 1606.66040039 1911.56420898 C1601.90088735 1915.26110942 1597.25632552 1919.08175278 1592.625 1922.9375 C1585.25153675 1929.0540473 1577.68256377 1934.84954028 1569.97509766 1940.53662109 C1567.34025014 1942.48881838 1564.7244943 1944.46581242 1562.10791016 1946.44238281 C1558.74873818 1948.97520344 1555.37490154 1951.48819873 1552 1954 C1551.04843018 1954.7113208 1551.04843018 1954.7113208 1550.07763672 1955.43701172 C1536.10389177 1965.8455557 1521.54870981 1975.39967885 1507.02180481 1985.01028442 C1503.67077386 1987.2274161 1500.32351073 1989.4498009 1496.98486328 1991.68554688 C1490.13646971 1996.27160681 1483.27265778 2000.80787649 1476.25 2005.125 C1475.3842334 2005.65867187 1474.5184668 2006.19234375 1473.62646484 2006.7421875 C1461.83932575 2013.97666597 1449.94112084 2021.02352511 1438 2028 C1436.51862549 2028.8667334 1436.51862549 2028.8667334 1435.00732422 2029.75097656 C1369.56671695 2067.87150134 1295.98202872 2092.93821371 1224.18255615 2116.28900146 C1222.05116974 2116.98333073 1219.92119089 2117.68182543 1217.79150391 2118.38134766 C1124.93645029 2148.81833125 1027.47620756 2168.8908365 907.88659668 2178.81216431 C905.7623029 2178.95039567 903.63841133 2179.09484289 901.51477051 2179.24276733 C880.20561607 2180.72171746 858.98412377 2181.34868975 837.62451172 2181.31567383 C834.38185738 2181.31104738 831.13957876 2181.31797988 827.89697266 2181.33618164 C805.17376003 2181.46227824 782.76976804 2180.40829869 760.14050293 2178.3656311 C754.46836603 2177.85762429 748.78960638 2177.44861318 743.109375 2177.04296875 C646.40534905 2169.9006578 550.19928341 2152.96791224 301 2070 C299.87899902 2069.51901855 298.75799805 2069.03803711 297.60302734 2068.54248047 C290.37232261 2065.42697477 283.17991876 2062.23059728 276 2059 C274.73327131 2058.43221215 273.46650534 2057.86450749 272.19970703 2057.296875 C190.61455012 2020.69222918 190.61455012 2020.69222918 157 1997 C155.90147705 1996.22922119 155.90147705 1996.22922119 154.78076172 1995.44287109 C143.96227238 1987.82187243 133.46380533 1979.81552251 123.06933594 1971.62841797 C121.15691173 1970.12347821 119.23980592 1968.62481261 117.3203125 1967.12890625 C104.53380684 1957.15138059 91.95273096 1946.92394203 79.62402344 1936.38574219 C77.93285779 1934.94270908 76.23625381 1933.50625183 74.5390625 1932.0703125 C67.49491102 1926.09310271 60.63461886 1919.95677333 53.875 1913.66015625 C51.65471043 1911.60578506 49.41782694 1909.59663351 47.125 1907.625 C38.39038791 1900.06119762 29.95984335 1892.08249675 21.86889648 1883.83642578 C20.17600733 1882.17294933 18.43987622 1880.64457359 16.625 1879.1171875 C10.90316672 1874.14096436 5.59513558 1868.74441818 0.24536133 1863.37573242 C-1.55862085 1861.56639067 -3.36788665 1859.76245681 -5.17773438 1857.95898438 C-10.48037314 1852.65908311 -15.70561895 1847.35922448 -20.57006836 1841.64819336 C-22.75574647 1839.12889799 -25.11359747 1836.83025188 -27.5 1834.5 C-31.13773571 1830.91078381 -34.60869984 1827.24670527 -37.92578125 1823.359375 C-40.87634306 1820.0031804 -43.94200746 1816.75817805 -47 1813.5 C-51.76544998 1808.41301972 -56.47586431 1803.30415908 -61 1798 C-61.87477272 1796.9789719 -62.74979699 1795.95815929 -63.625 1794.9375 C-65.14078689 1793.16954381 -66.65607027 1791.40117032 -68.16967773 1789.63134766 C-71.43581913 1785.81435788 -74.72170521 1782.01541076 -78.02099609 1778.22705078 C-83.80572629 1771.58130595 -89.45977526 1764.85190046 -95 1758 C-95.99406922 1756.78716792 -96.98891311 1755.57497052 -97.984375 1754.36328125 C-104.71982771 1746.14809322 -111.26173718 1737.80977013 -117.68359375 1729.34765625 C-120.49888803 1725.64270556 -123.36014742 1721.9759587 -126.2331543 1718.31567383 C-133.75265004 1708.72642052 -140.94358386 1698.93370403 -148 1689 C-148.50241211 1688.29520508 -149.00482422 1687.59041016 -149.52246094 1686.86425781 C-157.49468718 1675.67616932 -165.30105055 1664.37766927 -173 1653 C-174.05743408 1651.43934814 -174.05743408 1651.43934814 -175.13623047 1649.84716797 C-184.26434986 1636.35877535 -193.11839073 1622.78131785 -201.37304688 1608.73535156 C-203.21594598 1605.63693596 -205.09706235 1602.56374875 -206.984375 1599.4921875 C-216.12717154 1584.60995518 -224.88112261 1569.58127285 -233.23535156 1554.23681641 C-234.90379893 1551.17645736 -236.58711903 1548.12475562 -238.2734375 1545.07421875 C-255.80785427 1513.1553432 -271.74834749 1480.40607819 -286.15087891 1446.96386719 C-287.47240851 1443.90740252 -288.81550082 1440.86058295 -290.15625 1437.8125 C-327.58880006 1352.24542835 -354.80687347 1261.85513983 -392.25334167 1023.41638184 C-392.63757312 1018.35640107 -393.05984813 1013.30414543 -393.55791092 1008.25394154 C-396.18960129 981.4532482 -396.59707171 954.74474641 -396.56644058 927.82738495 C-396.56244667 924.20158831 -396.56320761 920.5758106 -396.5640564 916.95001221 C-396.54641918 876.8932496 -394.76520322 837.35998121 -390.38598633 797.55224609 C-389.90978582 793.16975562 -389.46966768 788.78411732 -389.03152466 784.39768982 C-384.83937615 742.63571911 -378.20969615 701.15070415 -370 660 C-369.83111267 659.15085022 -369.66222534 658.30170044 -369.48822021 657.42681885 C-350.78187685 563.66683941 -321.55280589 471.79196523 -213.453125 242.47314453 C-211.38524844 238.95372425 -209.4099175 235.38597075 -207.4375 231.8125 C-202.94164057 223.7067487 -198.02747251 215.86458773 -193.11328125 208.0078125 C-192.60748535 207.18055664 -192.10168945 206.35330078 -191.58056641 205.50097656 C-190.49627042 203.78526323 -189.35385251 202.10533425 -188.16552734 200.45996094 C-184.91790456 195.97351179 -184.91790456 195.97351179 -184.15795898 190.68359375 C-184.91826256 188.31945679 -185.87460119 186.21253211 -187 184 C-187.62742555 182.54643158 -188.24982117 181.09068177 -188.8671875 179.6328125 C-189.19315918 178.90231689 -189.51913086 178.17182129 -189.85498047 177.41918945 C-204.82468053 143.74990476 -206.30214767 106.53857951 -193.25048828 72.01757812 C-186.9640549 55.83780609 -177.7870973 41.6984708 -166 29 C-165.46890625 28.42507813 -164.9378125 27.85015625 -164.390625 27.2578125 C-121.04050504 -19.13086727 -56.42605393 -27.73718157 0 0 Z M-114 70 C-114.91265625 70.77537109 -114.91265625 70.77537109 -115.84375 71.56640625 C-128.56739563 83.10443944 -136.32717144 101.11757127 -137.25390625 118.05859375 C-137.99119859 138.57989712 -131.9114941 156.57873135 -118 172 C-117.39671875 172.69609375 -116.7934375 173.3921875 -116.171875 174.109375 C-104.89861873 186.32996373 -87.49038639 194.60738287 -70.8359375 195.3359375 C-49.41220894 195.69209142 -31.2366533 190.63050954 -15 176 C-14.04867187 175.17048828 -14.04867187 175.17048828 -13.078125 174.32421875 C0.75173616 161.50405984 7.08455712 142.41822535 8.25 124.0625 C7.93710122 103.96744483 0.20370021 86.03979615 -13.48828125 71.41796875 C-29.9926237 55.52965153 -48.31210388 50.50327327 -70.578125 50.796875 C-86.91999078 51.25422414 -102.04470317 59.09302211 -114 70 Z " fill="#FA5D6D" transform="translate(864,434)"/>
<path d="M0 0 C2.86236078 1.01989972 3.86738379 1.77028199 5.40942383 4.44140625 C6.0517395 5.98634766 6.0517395 5.98634766 6.70703125 7.5625 C7.20436768 8.7366748 7.7017041 9.91084961 8.21411133 11.12060547 C8.74695186 12.41371872 9.27974691 13.70685072 9.8125 15 C10.65884053 17.01201723 11.50998516 19.02196289 12.36112976 21.0319519 C12.96028178 22.44805833 13.55783352 23.86484277 14.15388489 25.28225708 C17.44083305 33.0895119 20.86429603 40.83549715 24.29574585 48.58007812 C25.30703639 50.86266805 26.31653089 53.14604385 27.32543945 55.4296875 C28.8824228 58.95365847 30.44077162 62.47702184 32 66 C35.5903881 63.19718568 38.42899183 60.45872519 41.25 56.875 C44.23639306 53.14695303 47.277863 49.52632476 50.5 46 C54.7332809 41.34339101 58.73103771 36.53020934 62.68115234 31.63232422 C64.17477854 29.78367839 65.67489071 27.94040886 67.17578125 26.09765625 C72.62781585 19.40163406 78.06831085 12.69936986 83.4140625 5.91796875 C83.93742187 5.28503906 84.46078125 4.65210938 85 4 C85.46148438 3.41863281 85.92296875 2.83726562 86.3984375 2.23828125 C88.60789326 0.52999472 90.27560191 0.91214301 93 1 C97.49143672 12.72838169 101.64212185 24.54987762 105.65625 36.44921875 C106.28236916 38.29956956 106.908608 40.14987987 107.53495789 42.00015259 C109.52852049 47.89418118 111.51515608 53.79053041 113.5 59.6875 C114.00642218 61.19169809 114.00642218 61.19169809 114.5230751 62.72628403 C136.01369703 126.57561515 156.55705654 189.70293952 163.375 257.0625 C163.45499237 257.84806274 163.53498474 258.63362549 163.61740112 259.44299316 C165.64447528 279.81754931 166.0799355 300.15563641 165.9921875 320.6171875 C165.98840969 321.54978079 165.98463188 322.48237408 165.98073959 323.44322777 C165.94383357 332.20508299 165.89964231 340.96686541 165.82861328 349.72851562 C165.67656517 369.16317534 165.58779719 388.50886099 167.36328125 407.87890625 C167.4249284 408.55180065 167.48657555 409.22469505 167.55009079 409.91798019 C173.14881711 469.15102673 192.58838008 526.96711206 223 578 C223.5377002 578.90621094 224.07540039 579.81242187 224.62939453 580.74609375 C232.12498175 593.30858078 240.20978158 605.30926694 249 617 C249.46035645 617.61343262 249.92071289 618.22686523 250.39501953 618.85888672 C256.07196766 626.39404884 261.94777249 633.76299712 268 641 C268.44037598 641.52674316 268.88075195 642.05348633 269.33447266 642.59619141 C280.42146895 655.81189099 292.20263516 668.28061168 304.375 680.5 C305.20708984 681.3367627 306.03917969 682.17352539 306.89648438 683.03564453 C311.77085721 687.89733385 316.7704912 692.52491658 322 697 C323.19147066 698.0453195 324.38160162 699.09216821 325.5703125 700.140625 C333.32446545 706.93683585 341.25177714 713.42554939 349.39501953 719.74755859 C356.59362943 725.36497094 363.49270418 731.2498698 370.19921875 737.4453125 C371.65075854 738.76931114 373.10623507 740.09014864 374.60424805 741.36132812 C381.23510045 747.00158776 387.3482713 753.16218927 393.49926758 759.31396484 C395.42444702 761.23696182 397.35749031 763.15180574 399.29101562 765.06640625 C405.60545488 771.35287541 411.63530967 777.66088507 417.14038086 784.67895508 C419.03455334 787.04312703 421.04122448 789.23988956 423.125 791.4375 C430.39343516 799.42897321 436.63646824 808.28597453 443 817 C443.81936035 818.12148437 443.81936035 818.12148437 444.65527344 819.265625 C496.029318 889.95734231 521.39237288 969.39940108 539.32702637 1053.8369751 C540.00151099 1057.00710175 540.68027814 1060.17628279 541.36035156 1063.34521484 C542.44173072 1068.38617366 543.51672548 1073.42844345 544.5854187 1078.47210693 C544.9835492 1080.35033687 545.38288224 1082.22831234 545.78347778 1084.10601807 C546.33359039 1086.69069354 546.87686071 1089.27670775 547.41796875 1091.86328125 C547.66083115 1092.99717537 547.66083115 1092.99717537 547.90859985 1094.15397644 C548.66825115 1097.82379699 549.18623684 1101.2490521 549 1105 C520.96250862 1105.34130163 493.20150035 1105.27818205 465.3057251 1102.25 C462.94179238 1101.99368879 460.57715989 1101.74466965 458.21240234 1101.49609375 C387.58330636 1093.9842635 318.29455322 1078.29850136 249.54885864 1060.83743286 C221.54833724 1053.72935116 193.80668127 1047.81380792 165 1045 C164.16863525 1044.9057373 163.33727051 1044.81147461 162.48071289 1044.71435547 C134.4296633 1041.85737511 103.78383992 1042.13476812 76 1047 C74.84951172 1047.19867676 73.69902344 1047.39735352 72.51367188 1047.60205078 C25.55646357 1055.9783032 -19.38214506 1074.35549475 -57 1104 C-58.10380082 1104.85984485 -59.20798431 1105.71919863 -60.3125 1106.578125 C-65.12397954 1110.33114676 -69.90929722 1114.11580921 -74.66015625 1117.9453125 C-81.26492216 1123.26828392 -87.91444789 1128.51695762 -94.6875 1133.625 C-95.35894043 1134.13409912 -96.03038086 1134.64319824 -96.72216797 1135.16772461 C-97.66987061 1135.87747437 -97.66987061 1135.87747437 -98.63671875 1136.6015625 C-99.46755981 1137.22538818 -99.46755981 1137.22538818 -100.31518555 1137.86181641 C-104.1466442 1140.45017465 -107.02649185 1141.24862437 -111.70703125 1141.4609375 C-118.27362716 1140.1409063 -123.89973228 1134.96159724 -129.0625 1130.9375 C-130.17286621 1130.07922607 -130.17286621 1130.07922607 -131.30566406 1129.20361328 C-133.54058016 1127.47349483 -135.77044002 1125.73701206 -138 1124 C-139.25376279 1123.02976251 -140.50765989 1122.05969854 -141.76171875 1121.08984375 C-148.6270803 1115.75908126 -155.31712604 1110.25439373 -161.92578125 1104.609375 C-164.70733088 1102.23730965 -167.53348661 1099.92507288 -170.375 1097.625 C-180.16757697 1089.64269563 -189.66372072 1081.31138776 -198.93994141 1072.73608398 C-201.52900484 1070.34284311 -204.14007644 1067.98716062 -206.8125 1065.6875 C-211.44602114 1061.67307145 -215.89640735 1057.46102549 -220.35717773 1053.25683594 C-223.95077883 1049.87726253 -227.60660535 1046.6229711 -231.375 1043.4375 C-245.33436104 1030.84624909 -250.74014969 1013.58392306 -255.0234375 995.84765625 C-255.37375856 994.43050945 -255.72484823 993.01355246 -256.0766449 991.59677124 C-257.00131605 987.85801473 -257.91103069 984.1157914 -258.81592178 980.37220383 C-259.37924002 978.04498333 -259.94624226 975.71868826 -260.51425171 973.39260864 C-266.29031432 949.71918447 -271.8691472 926.02515344 -276 902 C-276.21398437 900.75943848 -276.42796875 899.51887695 -276.6484375 898.24072266 C-281.45806986 869.48833442 -283.42823719 840.12384621 -284 811 C-284.01659668 810.21786133 -284.03319336 809.43572266 -284.05029297 808.62988281 C-284.1399258 803.74987336 -284.10558523 798.87947283 -284 794 C-283.98211426 793.10152344 -283.96422852 792.20304687 -283.94580078 791.27734375 C-282.36652773 721.28211769 -266.64405597 656.56458823 -236.19921875 593.625 C-189.56262719 504.06938182 -189.56262719 504.06938182 -189.76367188 407.78710938 C-198.73172838 383.80777362 -214.98213636 369.00734772 -235.68188477 354.99951172 C-241.48303555 351.0691311 -247.15754011 347.00265197 -252.77685547 342.81762695 C-256.53984573 340.02842439 -260.37426318 337.41531307 -264.3125 334.875 C-277.52475843 326.12610209 -286.56259017 315.75637416 -290 300 C-291.22666564 287.37466039 -289.68941336 275.26811826 -286.86669922 262.96801758 C-283.75341779 249.28466173 -283.88761161 235.87381094 -284.390625 221.90820312 C-284.52171263 213.88318236 -284.11105951 207.45731214 -279 201 C-271.52970815 193.46832919 -261.0234784 190.90638969 -251.1875 187.8125 C-249.60822848 187.30165947 -248.02944828 186.7892974 -246.45117188 186.27539062 C-240.70340764 184.41236819 -234.94717456 182.57914758 -229.16064453 180.83984375 C-227.45110596 180.32550781 -227.45110596 180.32550781 -225.70703125 179.80078125 C-224.72839111 179.51243408 -223.74975098 179.22408691 -222.74145508 178.92700195 C-215.98371491 176.64192408 -210.54521001 173.8617215 -207.1875 167.375 C-206.42294648 165.59814565 -205.69507763 163.80516497 -205 162 C-196.34136767 140.16392048 -183.09829349 124.5296462 -161.27275085 114.91548157 C-148.32254378 109.69903831 -135.0935117 106.9620776 -121.43359375 104.3125 C-119.26552554 103.88415941 -117.09764669 103.45485939 -114.9299469 103.0246582 C-109.25364921 101.90035469 -103.57524261 100.78711797 -97.8961792 99.67687988 C-88.83569553 97.90370036 -79.77854664 96.11357674 -70.7214222 94.32333374 C-67.59973589 93.70793177 -64.47714706 93.09731061 -61.35435486 92.48754883 C-51.49654952 90.55527079 -41.65551698 88.55042605 -31.84399414 86.39453125 C-30.92705749 86.19929367 -30.01012083 86.00405609 -29.06539822 85.80290222 C-23.61069176 84.5796321 -19.14293891 83.33965109 -15.24731445 79.08642578 C-13.89994636 76.83263683 -13.43045422 75.20463474 -13.04296875 72.6171875 C-12.90310547 71.71750244 -12.76324219 70.81781738 -12.61914062 69.89086914 C-12.47669922 68.89563232 -12.33425781 67.90039551 -12.1875 66.875 C-12.02572266 65.81982178 -11.86394531 64.76464355 -11.69726562 63.67749023 C-10.71439225 57.1750212 -9.81299024 50.6625336 -8.92976379 44.14593506 C-8.4197393 40.39060068 -7.90140545 36.63642286 -7.38369751 32.88214111 C-7.00585228 30.10550611 -6.64355277 27.32713411 -6.28198242 24.54833984 C-4.023749 7.75005717 -4.023749 7.75005717 0 0 Z " fill="#FFC13B" transform="translate(1159,1003)"/>
<path d="M0 0 C2.38039659 -0.00297294 4.76078882 -0.007084 7.14118314 -0.01150417 C14.63332675 -0.0250839 22.12545989 -0.0348033 29.61761492 -0.03870606 C38.18857991 -0.04320006 46.7593865 -0.06085017 55.33030337 -0.08970666 C62.01801385 -0.11142438 68.70567998 -0.12141526 75.39342529 -0.12274718 C79.36194223 -0.12378559 83.33030833 -0.12948749 87.29878736 -0.1475668 C91.02636421 -0.16423043 94.75367938 -0.16611607 98.48128057 -0.15742779 C100.46994898 -0.15631048 102.45860949 -0.16987417 104.44722676 -0.18418026 C116.40733123 -0.12983491 129.26460875 1.03056254 139.9487679 6.82518864 C140.6092513 7.17218815 141.2697347 7.51918766 141.95023274 7.87670231 C154.05233356 14.53449358 160.76459625 24.9922541 164.96829915 37.93456364 C166.65125011 44.95694893 166.6483505 51.82316699 166.62479329 59.01049137 C166.62493932 60.18194202 166.62508534 61.35339268 166.6252358 62.56034184 C166.62454118 66.41817443 166.61676988 70.27595826 166.60892415 74.13378239 C166.60705837 76.81420823 166.605586 79.49463139 166.60463643 82.17505741 C166.60153514 88.5001244 166.59333802 94.82517398 166.58328694 101.15023333 C166.5720884 108.35460925 166.56660594 115.55898602 166.56159151 122.76336849 C166.55115435 137.57565075 166.53357828 152.38791939 166.5112679 167.20018864 C167.07465902 167.19834505 167.63805015 167.19650146 168.21851373 167.19460201 C181.99334301 167.15023192 195.76815959 167.11736795 209.54304528 167.09656429 C216.20476573 167.08616288 222.86642042 167.07207073 229.5281136 167.04930973 C235.9666557 167.02745085 242.40514813 167.01559266 248.84372449 167.01043415 C251.29028216 167.00676169 253.73683737 166.99959085 256.18337369 166.98872852 C280.06854988 166.88697624 301.82848858 167.06330392 320.5347054 184.03612614 C332.68178228 196.60755504 333.8135368 212.74424025 333.7859261 229.18773746 C333.79027884 230.90356511 333.79546385 232.61939081 333.80141377 234.33521366 C333.81475569 238.97585638 333.81538773 243.6164174 333.81285048 248.25707555 C333.81177734 252.14097069 333.81667297 256.02484954 333.8214559 259.90874118 C333.83253481 269.0775988 333.83299782 278.24641545 333.82694173 287.41527653 C333.82090488 296.85095023 333.83320934 306.28647471 333.8545118 315.72212297 C333.87216875 323.84387813 333.87812265 331.96558597 333.87487406 340.08735961 C333.87306733 344.92895868 333.87563602 349.77045133 333.88958859 354.61203289 C333.90222886 359.1683944 333.90016462 363.72452459 333.88717771 368.28088284 C333.88482568 369.94484761 333.88749681 371.60882898 333.89580083 373.2727747 C333.97897804 391.24798122 330.6099253 405.59295148 317.9253304 418.97753239 C302.07657993 433.56966672 280.87258364 433.48880039 260.65883565 433.53571415 C257.1698006 433.54408308 253.6810174 433.56465551 250.19205403 433.58825016 C241.53956137 433.64432569 232.88700802 433.67993871 224.23441243 433.71587467 C216.89311413 433.74711677 209.55194226 433.78627015 202.21074605 433.83612919 C198.77570583 433.85617206 195.34076351 433.86450762 191.90567708 433.87242985 C189.80480264 433.88539858 187.70393151 433.89891834 185.60306478 433.91307926 C184.65028646 433.91209736 183.69750813 433.91111546 182.71585774 433.9101038 C176.29633265 433.82068087 176.29633265 433.82068087 170.5112679 436.20018864 C167.92162746 441.21592293 168.21825098 446.56895917 168.22415853 452.08251286 C168.21732549 453.0623061 168.21049245 454.04209934 168.20345235 455.05158329 C168.18989042 457.17460058 168.18082042 459.2976503 168.17574239 461.42070484 C168.16741994 464.79458901 168.14687851 468.1682068 168.12320638 471.54201603 C168.07503012 478.71970031 168.04212534 485.8974118 168.0112679 493.07518864 C167.97544281 501.36388828 167.93316312 509.65245951 167.87532735 517.94103718 C167.85548435 521.23983163 167.84698198 524.53852394 167.83902669 527.83736515 C167.73469026 548.67557821 167.55855877 569.4011022 152.4097054 585.42284489 C141.02457654 596.18440662 126.27512164 600.31097056 110.82355428 600.33390141 C109.51747716 600.33816639 108.21140004 600.34243137 106.86574483 600.3468256 C105.43524858 600.34647614 104.00475236 600.34601464 102.57425618 600.34545231 C101.05402728 600.34844761 99.53379913 600.351851 98.01357198 600.35562992 C93.89520371 600.3644416 89.77685624 600.36680699 85.65847945 600.36744571 C83.0778198 600.36815843 80.49716536 600.37029706 77.91650701 600.37294292 C68.89079892 600.38219073 59.86510557 600.38627898 50.8393929 600.38549137 C42.46498514 600.38489245 34.09064217 600.39540921 25.71625078 600.41123503 C18.49891546 600.42438142 11.28160111 600.42967223 4.06425393 600.42903596 C-0.23369326 600.42878282 -4.53158296 600.4315304 -8.82951808 600.44221401 C-12.88269047 600.45201385 -16.93575187 600.45189432 -20.98892856 600.44469738 C-22.46212309 600.44366574 -23.93532497 600.44592787 -25.40850711 600.45205784 C-33.19103887 600.4822967 -40.83748744 600.18740099 -48.56957316 599.29438114 C-49.25970024 599.21475516 -49.94982732 599.13512917 -50.66086733 599.05309027 C-65.79732613 597.14014656 -78.8230136 591.236045 -88.4887321 579.20018864 C-95.70082139 567.95688787 -97.56937044 556.44626206 -98.05513835 543.39159489 C-98.096338 542.313848 -98.13753764 541.23610111 -98.17998576 540.12569523 C-98.64673719 526.52601104 -98.63994725 512.92324151 -98.61910319 499.31737614 C-98.61341844 495.58218593 -98.61669687 491.84706787 -98.62267566 488.1118803 C-98.6263738 485.13757169 -98.62510138 482.16327883 -98.62254786 479.18896961 C-98.62160105 477.17200769 -98.62451738 475.15504503 -98.62767863 473.13808537 C-98.59534136 459.81502655 -98.02865743 446.51088729 -97.4887321 433.20018864 C-98.35839327 433.20295402 -98.35839327 433.20295402 -99.24562335 433.20577526 C-113.41232609 433.25011971 -127.57901831 433.28312514 -141.74577594 433.30381298 C-148.59696912 433.31408571 -155.44811571 433.32806856 -162.29927897 433.35106754 C-168.91935815 433.37328003 -175.53940189 433.38478035 -182.15951991 433.38994312 C-184.67668105 433.39361923 -187.19383975 433.40079738 -189.71098018 433.41164875 C-232.62302318 433.58917151 -232.62302318 433.58917151 -247.4887321 420.20018864 C-248.41105632 419.38034489 -248.41105632 419.38034489 -249.35201335 418.54393864 C-259.0609051 409.39637467 -264.1078422 397.10991765 -264.62015986 383.78079224 C-264.62313453 382.5200718 -264.62610919 381.25935137 -264.62917399 379.96042728 C-264.63214512 379.25393498 -264.63511624 378.54744268 -264.63817739 377.81954151 C-264.64681442 375.46390844 -264.6483684 373.10832649 -264.64986491 370.75267887 C-264.65449673 369.05862159 -264.65952188 367.36456534 -264.66491008 365.67051029 C-264.67800351 361.07509834 -264.6844734 356.47970098 -264.68892074 351.88427329 C-264.69185722 349.00866581 -264.69596317 346.13306227 -264.70042491 343.25745678 C-264.7140936 334.24728109 -264.72376257 325.23711446 -264.7276268 316.22692913 C-264.73210207 305.85083889 -264.74962795 295.47488074 -264.7786274 285.09883064 C-264.80030118 277.06290148 -264.81033416 269.02700932 -264.81166792 260.99105126 C-264.81271214 256.19910855 -264.81853762 251.40729012 -264.83648753 246.61537838 C-264.85306635 242.10174651 -264.85507652 237.588331 -264.84634852 233.07467937 C-264.84558329 231.42725765 -264.84985221 229.77982381 -264.85980678 228.13243198 C-264.9599596 210.51019091 -262.234435 195.20631054 -249.9262321 181.82518864 C-238.13590439 170.82207553 -222.84941105 166.71673057 -207.03218913 166.81542301 C-205.95742824 166.81005024 -204.88266734 166.80467747 -203.77533793 166.79914188 C-201.46578197 166.78943401 -199.15618984 166.78639832 -196.84661555 166.78949833 C-193.18929401 166.79400925 -189.53244786 166.77988647 -185.87517619 166.76110172 C-176.80235441 166.71827187 -167.72954501 166.70705359 -158.65663981 166.69487858 C-150.96530133 166.6833509 -143.27418265 166.65981245 -135.58293605 166.62018681 C-131.98333555 166.60662435 -128.38403289 166.61078413 -124.78441691 166.61559391 C-122.57924336 166.60625521 -120.37407311 166.59608688 -118.16890788 166.58495426 C-116.67264621 166.5941766 -116.67264621 166.5941766 -115.14615703 166.60358524 C-109.94379959 166.55744592 -105.80291801 166.4495833 -101.4887321 163.20018864 C-98.80427713 158.15829593 -99.20246347 152.58902849 -99.21749187 147.01073551 C-99.21226512 145.99846897 -99.20703837 144.98620243 -99.20165324 143.94326115 C-99.19143135 141.7498412 -99.185636 139.55639712 -99.18377185 137.36295414 C-99.18009769 133.88040305 -99.16333898 130.39813407 -99.14301372 126.91564274 C-99.08772283 117.01542785 -99.05702796 107.11517072 -99.03243327 97.21483707 C-99.01646622 91.15183472 -98.9861461 85.08903063 -98.94766879 79.02613163 C-98.93609276 76.72670457 -98.93008909 74.42724188 -98.92998767 72.12778568 C-98.92880494 52.4386037 -98.12734179 32.80655794 -84.4887321 17.20018864 C-84.01177897 16.60721989 -83.53482585 16.01425114 -83.0434196 15.40331364 C-74.83567632 6.08195695 -61.90547874 1.59445451 -49.76825786 0.79326725 C-48.02635212 0.71441282 -46.28392193 0.64663559 -44.54122233 0.58788395 C-43.55968149 0.55042686 -42.57814065 0.51296978 -41.56685615 0.47437763 C-27.71710441 0.00208804 -13.85625213 0.01648533 0 0 Z " fill="#783173" transform="translate(2594.488732099533,348.7998113632202)"/>
<path d="M0 0 C3.71669616 3.92187655 6.13545781 7.8025708 8.5 12.6875 C8.82983887 13.36627197 9.15967773 14.04504395 9.49951172 14.74438477 C10.25018401 16.2921192 10.9971868 17.84163685 11.74121094 19.39257812 C13.11335265 22.23479563 14.51279382 25.06265956 15.9140625 27.890625 C48.30591821 93.66290273 72.00914493 164.04978596 86 236 C86.14612732 236.74761597 86.29225464 237.49523193 86.44281006 238.26550293 C99.24122519 304.03587353 107.07093952 371.49563459 111.125 438.375 C111.23859863 440.24200562 111.23859863 440.24200562 111.35449219 442.14672852 C111.59686566 446.43021359 111.80575471 450.71410341 112 455 C112.04343536 455.92763153 112.08687073 456.85526306 112.13162231 457.81100464 C113.22452141 481.97042397 113.20120345 506.13343866 113.1875 530.3125 C113.18723312 531.36740002 113.18696625 532.42230003 113.18669128 533.50916672 C113.17708506 563.763496 113.16178576 593.98082989 111.18359375 624.18328857 C110.98585373 627.21703332 110.79739886 630.2512828 110.609375 633.28564453 C104.42442196 731.75527577 88.98891555 829.04046419 47 987 C46.72518799 987.90030945 46.45037598 988.8006189 46.16723633 989.72821045 C19.53005985 1076.8454771 -14.82284193 1162.5070506 -65.20703125 1256.9140625 C-67.85946756 1261.71699997 -70.40696628 1266.56955626 -72.9375 1271.4375 C-78.68727542 1282.4449061 -84.83036117 1293.22390096 -91 1304 C-91.61601074 1305.07830078 -92.23202148 1306.15660156 -92.86669922 1307.26757812 C-100.70422148 1320.97573103 -108.66504539 1334.58782772 -117 1348 C-121.61197566 1346.54224059 -124.67449728 1343.87651506 -128.1875 1340.6875 C-161.85674422 1311.08528742 -200.72074112 1293.66223254 -246 1296 C-291.98594577 1299.86393795 -332.97145912 1326.23409159 -367.125 1355.5546875 C-368.07375 1356.36164063 -369.0225 1357.16859375 -370 1358 C-370.886875 1358.76570313 -371.77375 1359.53140625 -372.6875 1360.3203125 C-375 1362 -375 1362 -378 1362 C-376.40519985 1357.18778328 -373.69298994 1353.49651937 -370.75 1349.4375 C-369.65835022 1347.91181879 -368.56722562 1346.3857617 -367.4765625 1344.859375 C-366.90583008 1344.06337891 -366.33509766 1343.26738281 -365.74707031 1342.44726562 C-362.84414853 1338.38090343 -359.98548643 1334.28377116 -357.125 1330.1875 C-355.93633298 1328.48688476 -354.74753 1326.78636453 -353.55859375 1325.0859375 C-352.96804199 1324.2412793 -352.37749023 1323.39662109 -351.76904297 1322.52636719 C-350.048826 1320.06972833 -348.32403817 1317.61637183 -346.59765625 1315.1640625 C-338.19325114 1303.21618502 -329.9389483 1291.17101614 -321.75488281 1279.07128906 C-319.71720047 1276.0588414 -317.67696245 1273.04813742 -315.63574219 1270.03808594 C-296.24960334 1241.48503456 -296.24960334 1241.48503456 -277.56445312 1212.47216797 C-274.55541163 1207.71724379 -271.4590614 1203.01895852 -268.375 1198.3125 C-262.34863691 1189.10072962 -256.41546296 1179.83643901 -250.57177734 1170.5078125 C-248.89097743 1167.8260516 -247.20525917 1165.1474156 -245.51953125 1162.46875 C-231.31760234 1139.86410776 -217.4930953 1117.03469964 -204 1094 C-203.14776855 1092.5466626 -203.14776855 1092.5466626 -202.27832031 1091.06396484 C-189.86612703 1069.88518938 -177.57093133 1048.65277657 -166 1027 C-165.43442383 1025.94409668 -164.86884766 1024.88819336 -164.28613281 1023.80029297 C-127.83101291 955.42442145 -100.65577547 881.89473731 -42 561 C-41.94779297 560.14529114 -41.89558594 559.29058228 -41.84179688 558.40997314 C-36.55981171 471.57307731 -38.82313439 383.18585975 -48.375 296.75 C-48.46206207 295.93973358 -48.54912415 295.12946716 -48.63882446 294.29464722 C-51.87112779 264.66589859 -57.9690849 235.45796148 -64.36541748 206.3805542 C-65.73609734 200.14543021 -67.09625044 193.90802527 -68.45090103 187.66940117 C-68.91905987 185.52141741 -69.39267461 183.37469107 -69.86691284 181.2280426 C-70.28833054 179.29577065 -70.28833054 179.29577065 -70.71826172 177.32446289 C-70.96663788 176.19537003 -71.21501404 175.06627716 -71.47091675 173.90296936 C-72 171 -72 171 -72 167 C-71.2471875 166.84144531 -70.494375 166.68289063 -69.71875 166.51953125 C-56.86294109 163.69562177 -43.83662619 160.81526201 -33 153 C-32.36835938 152.56171875 -31.73671875 152.1234375 -31.0859375 151.671875 C-21.79219531 144.54803738 -16.36130931 132.85342548 -14.39962769 121.53643799 C-12.95354273 110.20825936 -12.78486735 99.06097501 -12.91080093 87.65062714 C-12.9461215 84.34618862 -12.96634202 81.04194998 -12.9826355 77.73736572 C-13.03111479 68.35645772 -13.1032185 58.97582609 -13.19189453 49.59521484 C-13.24541252 43.82443221 -13.27951411 38.05379821 -13.30163193 32.28281403 C-13.31403331 30.09309566 -13.33402139 27.90340645 -13.3617897 25.71382904 C-13.40017365 22.66546953 -13.41400354 19.61790431 -13.42236328 16.56933594 C-13.43988647 15.66959549 -13.45740967 14.76985504 -13.47546387 13.84284973 C-13.46263402 9.7497555 -13.356943 7.57709644 -11.16110229 4.0269165 C-7.42141742 0.51943376 -5.12969242 -0.82075079 0 0 Z " fill="#FFC13B" transform="translate(2796,798)"/>
<path d="M0 0 C1.05370411 -0.0201479 2.10740822 -0.04029579 3.19304276 -0.06105423 C11.24305178 -0.20941383 19.29255586 -0.28622689 27.34375 -0.33203125 C29.12656498 -0.34344965 29.12656498 -0.34344965 30.94539642 -0.35509872 C75.13019381 -0.59012474 115.76028584 4.56748231 158.5068922 15.29289055 C165.64269745 17.07456789 172.8152723 18.659514 180.00390625 20.21484375 C193.99202803 23.2596793 207.9222505 26.52042419 221.84375 29.85546875 C223.16200353 30.17026849 224.48028212 30.48496327 225.79858398 30.79956055 C307.70810204 50.35588461 388.65551602 73.11349775 468.84375 98.85546875 C470.90283147 99.5149757 472.9619135 100.17448093 475.02099609 100.83398438 C577.99265162 133.8611446 679.26235235 171.99988037 849.64746094 245.86053467 C851.84523463 246.8561413 854.04366889 247.85027786 856.2421875 248.84423828 C866.46390793 253.46887301 876.66341268 258.14044278 886.84375 262.85546875 C887.56145569 263.18768433 888.27916138 263.5198999 889.01861572 263.86218262 C910.46692964 273.8006617 931.69120177 284.17914446 952.84375 294.73046875 C953.97720856 295.29456451 955.11066711 295.85866028 956.2784729 296.43984985 C970.52680732 303.53833961 984.61458192 310.86580959 998.53961182 318.57989502 C1000.57467052 319.70650602 1002.61290601 320.82689332 1004.65380859 321.94287109 C1021.60340303 331.21755657 1038.28955919 340.89372171 1054.84375 350.85546875 C1055.85453613 351.46277832 1056.86532227 352.07008789 1057.90673828 352.69580078 C1091.31881091 372.8023265 1124.19517355 394.0579681 1155.84375 416.85546875 C1156.47684082 417.30970215 1157.10993164 417.76393555 1157.76220703 418.23193359 C1170.4135827 427.34940545 1170.4135827 427.34940545 1171.25593567 432.2567749 C1171.27307114 433.14753723 1171.2902066 434.03829956 1171.30786133 434.95605469 C1171.33411087 435.97101013 1171.36036041 436.98596558 1171.3874054 438.03167725 C1171.40006943 439.12337219 1171.41273346 440.21506714 1171.42578125 441.33984375 C1171.45982307 443.03418549 1171.45982307 443.03418549 1171.49455261 444.76275635 C1171.53914195 447.15323994 1171.57649887 449.54386774 1171.60717773 451.93457031 C1171.65588393 455.57808488 1171.73142696 459.22031429 1171.81054688 462.86328125 C1171.8505687 465.18877493 1171.88903065 467.51429608 1171.92578125 469.83984375 C1171.94856644 470.92344177 1171.97135162 472.00703979 1171.99482727 473.12347412 C1172.13867814 487.21630139 1172.13867814 487.21630139 1167.34375 492.73046875 C1158.67179716 498.90689559 1145.13666732 497.71695904 1135.19140625 496.35546875 C1117.63296038 492.94078756 1103.6923792 484.12165005 1089.60058594 473.60375977 C1072.54475359 460.88497244 1054.92858717 449.05533532 1036.84375 437.85546875 C1035.76996094 437.18902344 1034.69617187 436.52257812 1033.58984375 435.8359375 C1008.46242171 420.26938272 982.66779337 406.0355293 956.328125 392.63134766 C953.04707262 390.95909604 949.77327888 389.27333737 946.5 387.5859375 C929.68761407 378.98351414 912.49977645 371.31747276 895.19873047 363.76171875 C891.23067079 362.027839 887.27290764 360.2718092 883.31640625 358.51171875 C862.42977072 349.27116256 841.191403 340.96490431 819.84375 332.85546875 C819.13144226 332.58395996 818.41913452 332.31245117 817.6852417 332.03271484 C790.45979355 321.66482997 764.4690862 315.41760792 735.28198242 315.6496582 C732.88254301 315.66815147 730.48348846 315.67016506 728.08398438 315.66992188 C715.80064209 315.69392944 704.92760106 315.8419959 693.46875 320.73046875 C691.90906494 321.37435547 691.90906494 321.37435547 690.31787109 322.03125 C687.21305338 323.31943298 684.11560063 324.62317835 681.02050781 325.93444824 C678.67656547 326.92620716 676.33067862 327.91325484 673.984375 328.89941406 C664.5381204 332.87029161 655.09888538 336.85751155 645.6640625 340.85546875 C634.57098793 345.55505646 623.46003763 350.21110996 612.34375 354.85546875 C596.71938774 361.3853524 581.11282793 367.95637294 565.51577759 374.5512085 C551.70049005 380.39203383 537.87104583 386.19797664 524.03125 391.98046875 C508.66770893 398.40054125 493.33055842 404.88005761 478.01098633 411.40429688 C466.68376009 416.22768365 455.34570742 421.02477272 444.00119019 425.80734253 C417.2516912 437.08540659 390.5365071 448.44377495 363.84375 459.85546875 C362.61017761 460.38267517 362.61017761 460.38267517 361.35168457 460.92053223 C335.02609313 472.17595211 308.96522717 483.96985919 283.09375 496.23046875 C207.49113382 532.05153564 130.43466178 567.38081646 45.84375 573.85546875 C44.58820313 573.96503906 43.33265625 574.07460938 42.0390625 574.1875 C0.44194293 577.37746316 -51.25754903 575.56744373 -84.87890625 547.58984375 C-87.35545311 545.39344925 -89.76199448 543.14089448 -92.15625 540.85546875 C-93.07664062 540.04722656 -93.07664062 540.04722656 -94.015625 539.22265625 C-110.44034472 524.2294488 -116.81362379 501.26671919 -121.65625 480.43359375 C-121.91591553 479.32419434 -122.17558105 478.21479492 -122.44311523 477.07177734 C-122.94843468 474.89494324 -123.44327675 472.71564196 -123.92602539 470.53369141 C-125.70416769 462.78990949 -127.46941009 455.26611681 -134.15625 450.35546875 C-142.61357999 444.14461704 -144.63458453 431.73268794 -147.59375 422.16796875 C-147.83647644 421.38912323 -148.07920288 420.61027771 -148.32928467 419.80783081 C-162.83618269 373.16961023 -162.83618269 373.16961023 -154.8984375 356.16015625 C-148.77098792 345.21110699 -140.06612194 337.89204553 -128.15625 333.85546875 C-111.29912458 329.33382792 -91.61180558 327.90540999 -76.03125 336.54296875 C-66.80706951 342.45627568 -60.93956383 349.51881237 -57.15625 359.85546875 C-54.80771507 371.03131056 -55.0654357 382.05162239 -55.75 393.38330078 C-55.90646775 395.98408824 -56.04086151 398.58531794 -56.171875 401.1875 C-56.94069398 415.68483632 -58.30024246 428.97407701 -63.765625 442.55078125 C-67.92491591 453.49076491 -66.26569554 463.05140719 -62.15625 473.85546875 C-55.32420802 487.88199526 -44.22918012 495.28984266 -30.15625 500.85546875 C-28.99351562 501.31824219 -27.83078125 501.78101563 -26.6328125 502.2578125 C-12.30368024 507.46121704 3.61019877 510.37504138 18.84375 510.85546875 C20.04128906 510.90703125 21.23882813 510.95859375 22.47265625 511.01171875 C83.40244696 512.77981984 145.61530512 493.01262406 199.8828125 466.640625 C200.48530193 466.34875557 201.08779137 466.05688614 201.70853806 465.75617218 C217.40598409 458.15051699 233.00722314 450.3499466 248.60400391 442.54052734 C252.68217849 440.49856853 256.76218364 438.46029668 260.84265232 436.4229269 C282.87576317 425.42092848 282.87576317 425.42092848 304.71386719 414.03857422 C309.21346509 411.64716164 313.7546202 409.34041388 318.30078125 407.0390625 C319.86134291 406.24677392 321.42188988 405.45445639 322.98242188 404.66210938 C325.32753785 403.47201024 327.67368975 402.28419941 330.02319336 401.1027832 C356.92874589 387.55975712 386.6200351 370.41675866 397.65625 340.85546875 C412.7044 294.90306439 404.8711303 242.65277914 383.5703125 200.02734375 C376.3326387 186.03485763 367.48297888 173.44075037 357.24365234 161.49755859 C356.05270348 160.10057184 354.89209182 158.67781383 353.73828125 157.25 C304.21826178 97.59368656 182.81365687 82.43602535 111.5720253 67.21564865 C109.63142975 66.80101944 107.69112383 66.38503542 105.75082397 65.96902466 C93.09637772 63.26673611 80.43427692 60.68974681 67.671875 58.546875 C66.72149353 58.38718735 65.77111206 58.22749969 64.79193115 58.06297302 C53.50454513 56.23050938 42.39371942 55.61499144 30.96875 55.60546875 C30.23831482 55.60479401 29.50787964 55.60411926 28.75531006 55.60342407 C16.89279646 55.62077594 5.45289096 56.29303399 -6.15625 58.85546875 C-6.93532715 59.02175781 -7.7144043 59.18804687 -8.51708984 59.359375 C-32.45546061 64.61734539 -53.32251965 75.32744131 -72.15625 90.85546875 C-72.68911621 91.28053711 -73.22198242 91.70560547 -73.77099609 92.14355469 C-83.07038266 99.61341552 -88.34458219 107.42046531 -92.15625 118.85546875 C-92.93350505 126.78347031 -89.75093769 131.69544104 -85.21875 137.85546875 C-73.87148001 154.8621541 -66.18224629 193.98729144 -69.65625 213.69140625 C-72.25762861 225.4271711 -77.79617411 235.32637737 -87.54296875 242.6484375 C-97.61969777 249.05514904 -107.24375377 250.3529161 -119.03320312 250.24658203 C-121.15299816 250.23049343 -123.27088748 250.24650618 -125.390625 250.265625 C-139.64384152 250.28887335 -150.7491798 246.97581241 -161.40625 237.23046875 C-170.09123502 228.03563643 -173.39702384 216.58386041 -173.31689453 204.24291992 C-172.98342835 197.21124315 -171.91038487 190.25440949 -170.90625 183.29296875 C-170.79265137 182.49377014 -170.67905273 181.69457153 -170.56201172 180.87115479 C-165.18089656 143.15699236 -165.18089656 143.15699236 -155.78125 133.10546875 C-147.24848272 123.83930257 -143.74676615 111.28565473 -140.38494873 99.44073486 C-131.16058907 67.10603722 -117.57447843 37.51299115 -87.16210938 19.95800781 C-71.85030231 11.54173217 -55.11334878 7.56377676 -38.15625 3.85546875 C-36.46999763 3.47092529 -36.46999763 3.47092529 -34.74967957 3.07861328 C-23.17569385 0.64756061 -11.80123372 0.19768165 0 0 Z M443.84375 180.85546875 C444.44352776 186.06709492 445.24406287 191.13605015 446.33203125 196.2734375 C446.62802859 197.69307431 446.92341349 199.11283892 447.21826172 200.53271484 C447.37164001 201.26834656 447.52501831 202.00397827 447.68304443 202.76190186 C450.23012219 215.03997962 452.52603295 227.30324812 454.21875 239.73046875 C454.37384033 240.86766357 454.52893066 242.0048584 454.6887207 243.17651367 C456.43868374 256.63876491 457.07721125 269.9836323 457.09375 283.54296875 C457.09575409 284.34829041 457.09775818 285.15361206 457.099823 285.9833374 C457.10802857 299.53325321 456.13872341 312.68228216 454.20751953 326.10644531 C453.60286133 330.67587575 453.22702358 335.26318326 452.84375 339.85546875 C467.79988834 333.28601843 482.45173089 326.19987334 497.0546875 318.8828125 C499.3241535 317.74875545 501.59373806 316.61493561 503.86343384 315.4813385 C508.58261961 313.12320733 513.30041488 310.76231816 518.01708984 308.39916992 C523.42707003 305.6887248 528.83992522 302.98408987 534.25428236 300.28240007 C539.527129 297.65110262 544.79767873 295.01523377 550.06731033 292.37750435 C552.28243143 291.26928285 554.49813375 290.16222224 556.71445847 289.05640984 C581.77215431 278.42233011 581.77215431 278.42233011 598.71875 258.79296875 C600.33793817 253.86793806 600.49687219 249.73799741 598.78125 244.79296875 C588.297999 228.89900755 563.51018298 223.87976292 546.48067093 217.89820862 C540.80131879 215.89895702 535.1312253 213.8734238 529.45922661 211.85342789 C527.27504099 211.07591476 525.09042657 210.29961535 522.90577698 209.52340698 C506.62981565 203.73501782 490.42888518 197.74555743 474.23074341 191.74356079 C471.89133876 190.87673807 469.5517758 190.01034246 467.21203613 189.14442444 C465.11399239 188.36770074 463.01645274 187.58961323 460.91955566 186.80979919 C455.26166547 184.71395411 449.58221566 182.71986687 443.84375 180.85546875 Z " fill="#FFC13B" transform="translate(1304.15625,-0.85546875)"/>
<path d="M0 0 C18.63507334 15.14368691 42.63445502 31.56972372 67.5 31.171875 C82.44412671 29.58099401 94.22193112 22.93602502 105.171875 13.11328125 C107.5 11.171875 107.5 11.171875 109.5 11.171875 C108.93470978 25.78462729 104.07530816 36.21864379 93.5 46.171875 C94.82 46.831875 96.14 47.491875 97.5 48.171875 C96.13133769 53.81760704 92.01464538 56.90130001 87.5 60.171875 C80.47631276 64.29711165 72.30609969 66.08432629 64.5 68.171875 C67.8 69.491875 71.1 70.811875 74.5 72.171875 C74.5 73.161875 74.5 74.151875 74.5 75.171875 C58.26775707 82.47917336 44.99907986 83.3329991 27.5 80.171875 C28.01949219 80.98269531 28.53898437 81.79351563 29.07421875 82.62890625 C41.70381179 102.68217875 41.70381179 102.68217875 41.5625 113.421875 C41.55347656 114.31390625 41.54445313 115.2059375 41.53515625 116.125 C41.51775391 117.13820313 41.51775391 117.13820313 41.5 118.171875 C38.41632949 116.71425387 35.33312328 115.25565322 32.25 113.796875 C31.37730469 113.384375 30.50460937 112.971875 29.60546875 112.546875 C28.76113281 112.14726563 27.91679688 111.74765625 27.046875 111.3359375 C25.88430176 110.78607178 25.88430176 110.78607178 24.69824219 110.22509766 C22.62040807 109.22956496 20.5574431 108.20879354 18.5 107.171875 C18.80703857 107.96134521 19.11407715 108.75081543 19.43041992 109.56420898 C38.56090463 158.91547065 38.56090463 158.91547065 35.5 176.171875 C34.85933594 175.97851562 34.21867187 175.78515625 33.55859375 175.5859375 C32.69363281 175.32554687 31.82867188 175.06515625 30.9375 174.796875 C30.09058594 174.54164063 29.24367188 174.28640625 28.37109375 174.0234375 C27.42363281 173.74242187 26.47617188 173.46140625 25.5 173.171875 C24.39398437 172.81480469 23.28796875 172.45773437 22.1484375 172.08984375 C9.59343593 168.93093008 -2.31794681 171.21763572 -13.5 177.234375 C-30.12558467 187.45240399 -40.16038408 204.61634354 -45.30859375 223.0703125 C-48.06691615 236.04393924 -46.26817089 249.32888063 -44.4375 262.296875 C-44.27435303 263.47743973 -44.27435303 263.47743973 -44.10791016 264.68185425 C-42.38371761 277.08972726 -40.32864386 289.42617498 -38 301.734375 C-37.79417801 302.85262665 -37.79417801 302.85262665 -37.584198 303.99346924 C-34.9736621 318.04954116 -29.94383851 329.90006097 -22.8984375 342.30078125 C-20.12567203 347.36737998 -18.48796488 351.34086175 -18.5 357.171875 C-19.8359375 360.12890625 -19.8359375 360.12890625 -21.875 362.984375 C-56.25044761 414.38378127 -67.86196907 489.57832176 -73.5 550.171875 C-73.60602539 551.26878662 -73.71205078 552.36569824 -73.82128906 553.49584961 C-74.83176112 565.80807677 -74.65015238 578.16572543 -74.63037109 590.51000977 C-74.62506395 594.43705196 -74.63031289 598.36397715 -74.63671875 602.29101562 C-74.6405641 618.60646748 -74.27048376 634.87455957 -73.5 651.171875 C-84.54195927 641.79594374 -94.65987742 631.67321095 -103.5 620.171875 C-103.93989258 619.61371094 -104.37978516 619.05554687 -104.83300781 618.48046875 C-126.21845831 591.3345782 -141.78430348 560.58227721 -153.5 528.171875 C-153.86818848 527.16092773 -154.23637695 526.14998047 -154.61572266 525.10839844 C-181.98538753 449.08855542 -187.65733826 366.59166951 -187.6875 286.484375 C-187.68808914 285.79426331 -187.68867828 285.10415161 -187.68928528 284.39312744 C-187.70035259 269.3089453 -187.57995803 254.22738318 -187.168787 239.14836693 C-187.11554164 237.17367419 -187.06863934 235.19881349 -187.02201843 233.22395325 C-186.65820292 221.39861634 -185.78595646 209.47837482 -181.875 198.234375 C-181.64554688 197.53892578 -181.41609375 196.84347656 -181.1796875 196.12695312 C-180.63160967 194.47130134 -180.0677297 192.82089141 -179.5 191.171875 C-177.609375 191.41796875 -177.609375 191.41796875 -175.5 192.171875 C-174.453125 194.01953125 -174.453125 194.01953125 -173.75 196.234375 C-173.50765625 196.96785156 -173.2653125 197.70132812 -173.015625 198.45703125 C-172.84546875 199.02292969 -172.6753125 199.58882812 -172.5 200.171875 C-170.84484803 198.51672303 -171.0166996 196.40719618 -170.703125 194.1328125 C-167.94855925 175.05169076 -164.90344023 157.82214688 -151.5 143.171875 C-148.04915034 144.64527148 -145.89274904 146.59560115 -143.3125 149.296875 C-142.05824763 150.60464835 -140.79159517 151.900969 -139.5 153.171875 C-139.17 153.171875 -138.84 153.171875 -138.5 153.171875 C-138.78875 151.99109375 -139.0775 150.8103125 -139.375 149.59375 C-139.75023723 148.03651548 -140.12522414 146.47922062 -140.5 144.921875 C-140.69078125 144.14457031 -140.8815625 143.36726563 -141.078125 142.56640625 C-141.25859375 141.81230469 -141.4390625 141.05820313 -141.625 140.28125 C-141.87636719 139.24436035 -141.87636719 139.24436035 -142.1328125 138.18652344 C-142.5 136.171875 -142.5 136.171875 -142.5 132.171875 C-137.80741463 134.31609463 -133.76784995 137.42619594 -129.5703125 140.39453125 C-126.42418925 142.21576036 -124.08961255 142.82362901 -120.5 143.171875 C-117.92924159 140.15739665 -116.97792934 137.81207729 -116.3125 133.921875 C-116.15394531 133.02984375 -115.99539063 132.1378125 -115.83203125 131.21875 C-115.72246094 130.54328125 -115.61289063 129.8678125 -115.5 129.171875 C-111.1027062 129.95412243 -107.55440555 131.34341759 -103.5 133.171875 C-103.66371094 132.63046875 -103.82742188 132.0890625 -103.99609375 131.53125 C-104.58590587 128.76964907 -104.59609308 126.24369361 -104.5625 123.421875 C-104.55347656 122.43703125 -104.54445313 121.4521875 -104.53515625 120.4375 C-104.52355469 119.68984375 -104.51195312 118.9421875 -104.5 118.171875 C-102.44921875 117.94401042 -100.3984375 117.71614583 -98.34765625 117.48828125 C-96.48859771 117.35300886 -96.48859771 117.35300886 -95.5 116.171875 C-95.28286777 109.44077578 -95.79953297 102.86383683 -96.5 96.171875 C-93.79869549 97.20393486 -91.52129109 98.15730741 -89.125 99.796875 C-85.61481684 101.63554237 -83.41237277 101.7307854 -79.5 101.171875 C-75.5892813 97.94128129 -73.71410253 95.8235231 -73.0625 90.796875 C-73.07232704 85.45096471 -75.67797053 81.30012334 -78.1875 76.7109375 C-79.5 74.171875 -79.5 74.171875 -79.5 72.171875 C-77.56215735 72.31308214 -75.62473045 72.46000373 -73.6875 72.609375 C-72.06908203 72.73119141 -72.06908203 72.73119141 -70.41796875 72.85546875 C-67.5 73.171875 -67.5 73.171875 -64.5 74.171875 C-67.9087279 62.025313 -67.9087279 62.025313 -73.6796875 50.87109375 C-74.5 49.171875 -74.5 49.171875 -73.5 46.171875 C-69.54 46.831875 -65.58 47.491875 -61.5 48.171875 C-62.5725 46.50125 -63.645 44.830625 -64.75 43.109375 C-67.45855401 38.85700015 -70.05190988 34.57843722 -72.5 30.171875 C-70.52 30.171875 -68.54 30.171875 -66.5 30.171875 C-72.56310136 15.67315435 -86.86976359 6.26566177 -100.8671875 0.14453125 C-115.19281362 -5.14787365 -128.21999344 -3.38667994 -141.953125 2.703125 C-144.18774404 3.74390647 -146.41965395 4.79053009 -148.6484375 5.84375 C-158.35558966 10.36488936 -169.09031182 10.66708323 -179.21875 7.1484375 C-185.54559187 4.44002916 -190.8550895 1.09485456 -194.5 -4.828125 C-195.62643177 -9.71240703 -194.82689706 -13.81464737 -192.625 -18.265625 C-181.47814509 -35.97126471 -162.03841068 -43.2930099 -142.5 -47.828125 C-90.80911857 -58.92053611 -38.85641329 -31.6262816 0 0 Z " fill="#783173" transform="translate(1551.5,956.828125)"/>
<path d="M0 0 C16.36225586 -0.40651567 31.35303474 2.53480304 44.0234375 13.46875 C54.66391572 23.69997906 61.69300416 35.3014203 62.00366211 50.31469727 C62.16256719 72.64576559 53.32634399 88.37585236 37.8984375 104.21875 C34.64125547 107.41680013 31.29873354 110.33765985 27.7109375 113.15625 C15.03803073 123.3379016 2.99699007 135.09402801 -5.2890625 149.15625 C-5.80968262 150.0229834 -5.80968262 150.0229834 -6.34082031 150.90722656 C-19.72127642 173.42555514 -23.42571369 198.43531015 -17.06152344 223.87768555 C-7.16672004 260.84834578 15.20922147 296.53247585 34.7109375 329.15625 C35.2579834 330.07180664 35.8050293 330.98736328 36.36865234 331.93066406 C38.92757217 336.20801049 41.49409227 340.48069776 44.06640625 344.75 C47.33733656 350.18629322 50.5391641 355.66148763 53.7109375 361.15625 C51.50741814 363.35976936 46.34671303 362.58864872 43.27270508 362.72875977 C42.28067581 362.77767365 41.28864655 362.82658752 40.26655579 362.87698364 C36.96306978 363.03858865 33.65929902 363.19326125 30.35546875 363.34765625 C28.05871577 363.45801017 25.76197827 363.56868656 23.46525574 363.67967224 C18.63395733 363.91209171 13.80251662 364.14120432 8.97094727 364.36791992 C2.809929 364.65718952 -3.35072252 364.95353875 -9.51128674 365.25230503 C-14.26499986 365.48220639 -19.01886836 365.70875276 -23.77279091 365.93427849 C-26.0415815 366.04221209 -28.31032938 366.15104757 -30.57903099 366.26083565 C-37.48124002 366.59354009 -44.38365418 366.89808245 -51.2890625 367.15625 C-52.42344946 367.20199724 -52.42344946 367.20199724 -53.58075333 367.24866867 C-55.52630247 367.32084324 -57.47278534 367.36653364 -59.41918945 367.40991211 C-60.93788383 367.44779091 -60.93788383 367.44779091 -62.48725891 367.48643494 C-66.66295174 366.99434089 -70.01857431 365.41501948 -73.00952148 362.45166016 C-76.6285541 357.36348914 -79.60868453 352.13791562 -82.3515625 346.53125 C-82.8148999 345.59104004 -83.2782373 344.65083008 -83.75561523 343.68212891 C-119.05944967 271.05877223 -145.04604216 182.63819815 -117.953125 103.12109375 C-109.31598761 80.18025773 -96.22271637 60.70754474 -79.2890625 43.15625 C-78.56460937 42.38023438 -77.84015625 41.60421875 -77.09375 40.8046875 C-57.33565541 20.17169573 -29.14788991 1.38469786 0 0 Z " fill="#FFC13B" transform="translate(2033.2890625,1737.84375)"/>
<path d="M0 0 C8.56332105 7.74342861 18.56310119 21.65562368 19.9609375 33.41015625 C19.46803442 40.90518253 15.26569782 45.55449043 10.703125 51.2421875 C9.27923229 53.11170589 7.86272227 54.98686705 6.453125 56.8671875 C5.32390625 58.36765625 5.32390625 58.36765625 4.171875 59.8984375 C0.83529796 64.38331703 -2.36175677 68.96672957 -5.57324219 73.54150391 C-9.27233997 78.80614181 -13.02035952 84.03285077 -16.796875 89.2421875 C-21.00387625 95.04774924 -25.17281452 100.87741677 -29.296875 106.7421875 C-33.55151814 112.79001052 -37.84392262 118.80908374 -42.171875 124.8046875 C-42.69523437 125.53042969 -43.21859375 126.25617188 -43.7578125 127.00390625 C-47.21900124 131.78952946 -50.73842821 136.52847283 -54.296875 141.2421875 C-57.12571686 137.86377279 -59.40536564 134.5005141 -61.50390625 130.62890625 C-62.0872876 129.55374756 -62.67066895 128.47858887 -63.27172852 127.37084961 C-63.87815186 126.23526611 -64.4845752 125.09968262 -65.109375 123.9296875 C-65.42123749 123.34671906 -65.73309998 122.76375061 -66.05441284 122.16311646 C-80.83354747 94.47926245 -91.81776523 63.90032866 -83.26171875 32.16015625 C-82.94332031 31.19722656 -82.62492187 30.23429687 -82.296875 29.2421875 C-81.96816406 28.22769531 -81.63945313 27.21320313 -81.30078125 26.16796875 C-75.48642564 10.45512538 -64.21683165 -0.52342113 -49.2421875 -7.5703125 C-32.61800044 -14.27290251 -14.06130729 -10.76120456 0 0 Z " fill="#783173" transform="translate(1600.296875,1152.7578125)"/>
<path d="M0 0 C12.48439001 4.97454925 22.78378641 16.38858216 29 28 C32.6959034 36.85297791 34.04907969 45.12546769 34.29003906 54.65600586 C34.6867468 78.21227732 34.6867468 78.21227732 45.3125 98.625 C45.869375 99.07875 46.42625 99.5325 47 100 C46.505 101.485 46.505 101.485 46 103 C31.30012335 103.73194407 18.82026048 101.51161586 7 92 C4.83606229 89.67451832 2.81166365 87.27578843 0.79296875 84.82421875 C-1.01940273 82.68905974 -1.01940273 82.68905974 -4.5 81.9375 C-5.325 81.958125 -6.15 81.97875 -7 82 C-10.04330245 88.47586451 -9.12046346 94.95355943 -7.24609375 101.72265625 C-5.07825632 107.59123706 -1.90681809 112.16670791 2 117 C2.99 118.485 2.99 118.485 4 120 C-5.95163906 119.77146549 -12.48430976 116.37945991 -20 110 C-34.2151277 95.11592511 -39.6243914 76.0298221 -39.26953125 55.86328125 C-38.46866767 35.99949742 -28.99234029 16.9266137 -15.1875 2.8125 C-10.44215852 -1.03206237 -5.85263179 -1.27052931 0 0 Z " fill="#783173" transform="translate(1352,966)"/>
</svg>
